<?xml version="1.0" encoding="utf-8"?>
<!-- Generator: Adobe Illustrator 16.0.4, SVG Export Plug-In . SVG Version: 6.00 Build 0)  -->
<!DOCTYPE svg PUBLIC "-//W3C//DTD SVG 1.1//EN" "http://www.w3.org/Graphics/SVG/1.1/DTD/svg11.dtd">
<svg version="1.1" id="Layer_1" xmlns="http://www.w3.org/2000/svg" xmlns:xlink="http://www.w3.org/1999/xlink" x="0px" y="0px"
	 width="45px" height="45px" viewBox="5 5 45 45" enable-background="new 5 5 45 45" xml:space="preserve">
<g>
	<path fill="#242F4E" d="M50,44.973C50,47.749,47.748,50,44.973,50H10.028C7.25,50,5,47.749,5,44.973V10.026C5,7.25,7.25,5,10.028,5
		h34.945C47.748,5,50,7.25,50,10.026V44.973z"/>
	<g>
		<g>
			<path fill="#838198" d="M41.548,30.687c-1.457,0.062-1.794-1.923-1.312-3.125C41.854,25.524,43.005,30.624,41.548,30.687z"/>
			<path fill="#838198" d="M38.523,31.229c-1.304,0.153-2.064-3.496-0.364-3.49C39.857,27.744,39.829,31.071,38.523,31.229z"/>
			<path fill="#838198" d="M44.438,29.576c1.244,0.164,0.843,2.536,0.176,3.306C42.51,33.432,43.192,29.413,44.438,29.576z"/>
			<path fill="#838198" d="M36.841,33.937c-1.401,0.43-2.118-2.229-0.934-3.124C37.093,29.918,38.242,33.507,36.841,33.937z"/>
			<path fill="#838198" d="M44.365,35.31c-0.836,1.259-6.12,2.815-6.612,0.529c-0.316-1.468,1.557-1.826,1.711-3.3
				c0-0.748,0.974-0.779,1.702-0.728c0.826,0.059,0.949,0.901,1.695,1.475C43.348,33.659,45.2,34.052,44.365,35.31z"/>
		</g>
		<g>
			<path fill="#838198" d="M40.229,9.242c-1.245,0.054-1.533-1.642-1.12-2.67C40.488,4.832,41.473,9.189,40.229,9.242z"/>
			<path fill="#838198" d="M37.645,9.704c-1.113,0.132-1.764-2.985-0.312-2.981C38.784,6.728,38.76,9.571,37.645,9.704z"/>
			<path fill="#838198" d="M42.697,8.293c1.063,0.14,0.72,2.166,0.15,2.824C41.051,11.587,41.633,8.153,42.697,8.293z"/>
			<path fill="#838198" d="M36.208,12.019c-1.197,0.367-1.811-1.905-0.799-2.668C36.422,8.584,37.404,11.651,36.208,12.019z"/>
			<path fill="#838198" d="M42.634,13.191c-0.713,1.075-5.228,2.405-5.648,0.451c-0.27-1.253,1.33-1.559,1.462-2.817
				c0-0.639,0.832-0.666,1.455-0.623c0.704,0.05,0.812,0.77,1.449,1.26C41.766,11.782,43.349,12.116,42.634,13.191z"/>
		</g>
		<g>
			<path fill="#838198" d="M42.807,42.08c1.437,0.376,2.198-1.528,1.975-2.828C43.609,36.877,41.37,41.706,42.807,42.08z"/>
			<path fill="#838198" d="M45.701,43.266c1.265,0.435,2.804-3.034,1.11-3.393C45.12,39.514,44.435,42.833,45.701,43.266z"/>
			<path fill="#838198" d="M40.167,40.356c-1.273-0.104-1.382,2.342-0.885,3.252C41.261,44.606,41.441,40.46,40.167,40.356z"/>
			<path fill="#838198" d="M46.795,46.323c1.302,0.729,2.587-1.763,1.599-2.908C47.405,42.271,45.493,45.597,46.795,46.323z"/>
			<path fill="#838198" d="M39.012,46.079c0.563,1.432,5.488,4.112,6.469,1.941c0.628-1.393-1.158-2.149-0.996-3.648
				c0.161-0.745-0.802-0.985-1.538-1.09c-0.834-0.118-1.14,0.695-2.002,1.104C40.379,44.653,38.449,44.647,39.012,46.079z"/>
		</g>
		<g>
			<path fill="#838198" d="M43.841,17.964c1.317,0.343,2.016-1.403,1.811-2.595C44.577,13.193,42.522,17.622,43.841,17.964z"/>
			<path fill="#838198" d="M46.495,19.05c1.159,0.398,2.57-2.783,1.019-3.111C45.96,15.61,45.334,18.653,46.495,19.05z"/>
			<path fill="#838198" d="M41.424,16.383c-1.169-0.095-1.27,2.147-0.812,2.981C42.424,20.279,42.59,16.478,41.424,16.383z"/>
			<path fill="#838198" d="M47.497,21.854c1.194,0.667,2.371-1.618,1.466-2.667C48.058,18.138,46.304,21.187,47.497,21.854z"/>
			<path fill="#838198" d="M40.362,21.63c0.517,1.312,5.031,3.77,5.931,1.779c0.576-1.276-1.062-1.971-0.913-3.346
				c0.146-0.683-0.735-0.903-1.411-0.999c-0.765-0.108-1.043,0.636-1.836,1.012C41.615,20.322,39.847,20.316,40.362,21.63z"/>
		</g>
	</g>
	<g>
		<path fill="#FFFFFF" d="M22.556,19.512c0.081-0.158,0.206-1.503,0.193-1.953c-0.014-0.45-0.189-0.444-0.206-1.062l-0.092-3.322
			c0.164,0.263,0.399,0.533,0.657,0.778c0.363,0.343,0.771,0.631,1.107,0.781c0,0.004-0.001,0.006-0.001,0.01
			c0.004,0.135,0.117,0.242,0.253,0.237c0.135-0.002,0.242-0.117,0.238-0.252c-0.004-0.136-0.117-0.241-0.252-0.239
			c-0.072,0.002-0.135,0.036-0.177,0.086c-0.604-0.271-1.482-1.049-1.792-1.692c0.563,0.336,1.159,0.571,1.684,0.634
			c0.528,0.062,0.958-0.055,1.262-0.339c0.032,0.012,0.064,0.02,0.099,0.019c0.136-0.002,0.242-0.117,0.238-0.252
			c-0.002-0.136-0.116-0.242-0.252-0.239c-0.135,0.003-0.242,0.118-0.238,0.252c0.001,0.038,0.013,0.074,0.029,0.105
			c-0.267,0.244-0.641,0.341-1.119,0.285c-0.456-0.051-0.973-0.252-1.477-0.535c0.018-0.002,0.031-0.002,0.047-0.005
			c1.312,0.152,2.494-0.152,3.388-0.877c0.036,0.02,0.079,0.035,0.125,0.034c0.136-0.004,0.241-0.117,0.238-0.253
			c-0.003-0.137-0.117-0.242-0.252-0.241c-0.136,0.005-0.242,0.12-0.239,0.254c0,0.027,0.009,0.05,0.017,0.074
			c-0.909,0.737-1.966,0.901-2.813,0.873c0.169-0.066,0.342-0.148,0.511-0.249c0.331-0.198,0.88-0.606,1.124-1.233
			c0.136-0.005,0.24-0.117,0.236-0.251c-0.004-0.135-0.118-0.242-0.253-0.239c-0.135,0.004-0.242,0.117-0.237,0.253
			c0,0.075,0.039,0.138,0.094,0.184c-0.225,0.574-0.74,0.956-1.049,1.141c-0.297,0.179-0.625,0.307-0.898,0.358
			c-0.087-0.011-0.172-0.021-0.252-0.034c0.771-0.835,1.245-1.942,1.026-2.956c0.066-0.045,0.111-0.119,0.109-0.205
			c-0.004-0.136-0.115-0.244-0.253-0.239c-0.136,0.004-0.241,0.118-0.239,0.252c0.004,0.123,0.101,0.219,0.221,0.232
			c0.212,0.987-0.282,2.074-1.059,2.875c-0.094-0.062-0.186-0.127-0.276-0.193c-0.048-0.074-0.089-0.16-0.124-0.254
			c-0.063-0.178-0.227-0.769,0.123-1.394c0.009,0.003,0.018,0.005,0.026,0.005c0.136-0.002,0.244-0.117,0.239-0.251
			c-0.004-0.136-0.118-0.243-0.253-0.239c-0.136,0.004-0.242,0.116-0.239,0.252c0.001,0.066,0.029,0.123,0.075,0.165
			c-0.253,0.46-0.303,0.997-0.137,1.486c-0.538-0.447-0.977-0.962-1.182-1.447c-0.121-0.287-0.145-0.535-0.075-0.737
			c0.013,0.001,0.026,0.006,0.039,0.006c0.137-0.002,0.243-0.118,0.239-0.252c-0.002-0.137-0.117-0.243-0.252-0.239
			c-0.136,0.005-0.242,0.117-0.237,0.253c0.001,0.059,0.026,0.11,0.062,0.15c-0.093,0.249-0.072,0.548,0.07,0.883
			c0.179,0.426,0.519,0.869,0.946,1.271c0.16,0.152,0.333,0.298,0.513,0.436c-1.229-0.338-2.327-1.035-2.79-1.781
			c0.038-0.044,0.062-0.103,0.062-0.168c-0.005-0.135-0.119-0.241-0.253-0.237c-0.137,0.003-0.243,0.116-0.239,0.253
			c0.004,0.136,0.117,0.241,0.251,0.239c0.009-0.001,0.018-0.007,0.027-0.007c0.122,0.195,0.286,0.388,0.479,0.574
			c0.628,0.593,1.594,1.095,2.628,1.342c-0.968,0.272-2.306,0.295-2.794-0.229c0.029-0.042,0.047-0.089,0.046-0.143
			c-0.003-0.136-0.118-0.241-0.253-0.239c-0.134,0.003-0.241,0.117-0.239,0.252c0.005,0.135,0.118,0.242,0.252,0.239
			c0.02-0.001,0.035-0.009,0.054-0.013c0.017,0.02,0.034,0.042,0.052,0.062c0.563,0.531,1.877,0.509,2.845,0.253
			c-0.26,0.223-0.541,0.417-0.833,0.564c-1.027,0.521-1.979,0.422-2.586-0.257c0.022-0.038,0.038-0.08,0.037-0.128
			c-0.004-0.134-0.118-0.241-0.252-0.238c-0.136,0.004-0.242,0.117-0.239,0.253c0.003,0.136,0.117,0.242,0.253,0.237
			c0.024,0,0.046-0.008,0.069-0.016c0.04,0.046,0.083,0.09,0.126,0.131c0.663,0.627,1.631,0.695,2.668,0.168
			c0.308-0.157,0.603-0.36,0.877-0.597c-0.275,0.756-0.914,1.298-1.383,1.545c-0.044-0.048-0.107-0.077-0.179-0.073
			c-0.136,0.002-0.242,0.115-0.239,0.25c0.003,0.137,0.118,0.243,0.252,0.238c0.136-0.002,0.243-0.116,0.238-0.251
			c0.001-0.004,0-0.008-0.001-0.012c0.456-0.237,1.062-0.741,1.387-1.439l0.091,3.269c0.017,0.618-0.16,0.622-0.148,1.072
			c0.015,0.449,0.212,1.786,0.303,1.939c0.022,0.036,0.044,0.049,0.066,0.045C22.514,19.563,22.536,19.55,22.556,19.512z"/>
		<path fill="#FFFFFF" d="M25.98,21.1c0.095-0.018,0.724-0.409,0.918-0.564c0.191-0.156,0.13-0.23,0.394-0.443l1.27-1.022
			c-0.12,0.214-0.206,0.484-0.23,0.711c-0.005,0.05-0.008,0.098-0.007,0.144c-0.01,0.004-0.018,0.007-0.026,0.013
			c-0.058,0.047-0.066,0.13-0.02,0.189c0.046,0.058,0.131,0.067,0.188,0.021c0.059-0.046,0.067-0.132,0.02-0.189
			c-0.018-0.023-0.044-0.036-0.07-0.043c-0.002-0.272,0.124-0.683,0.308-0.93c-0.006,0.042-0.011,0.084-0.016,0.127
			c-0.033,0.303-0.015,0.606,0.062,0.87c0.134,0.464,0.428,0.708,0.815,0.686c0.004,0.007,0.008,0.016,0.013,0.023
			c0.048,0.058,0.132,0.067,0.188,0.021c0.058-0.047,0.067-0.132,0.021-0.19c-0.047-0.057-0.131-0.066-0.189-0.021
			c-0.023,0.02-0.037,0.046-0.045,0.075c-0.454,0.023-0.641-0.369-0.714-0.621c-0.086-0.293-0.093-0.645-0.035-0.985
			c0.157,0.305,0.36,0.582,0.59,0.786c0.364,0.323,0.766,0.439,1.167,0.346c0.002,0.002,0,0.004,0.002,0.006
			c0.048,0.058,0.132,0.068,0.189,0.021c0.058-0.047,0.067-0.133,0.02-0.189c-0.047-0.058-0.131-0.068-0.188-0.021
			c-0.029,0.024-0.047,0.058-0.048,0.094c-0.463,0.105-0.84-0.113-1.08-0.327c-0.233-0.207-0.437-0.495-0.594-0.815
			c0.18,0.125,0.368,0.22,0.547,0.27c0.285,0.079,0.535,0.044,0.733-0.098c0.047,0.027,0.106,0.026,0.152-0.012
			c0.058-0.045,0.066-0.129,0.02-0.188c-0.047-0.058-0.132-0.067-0.189-0.02c-0.045,0.036-0.059,0.097-0.041,0.149
			c-0.176,0.122-0.392,0.15-0.649,0.08c-0.166-0.046-0.34-0.135-0.508-0.25c0.618-0.029,1.232-0.313,1.602-0.936
			c0.036,0.005,0.074-0.001,0.106-0.026c0.058-0.048,0.067-0.131,0.021-0.19c-0.048-0.056-0.132-0.067-0.189-0.02
			c-0.058,0.047-0.067,0.131-0.021,0.189c0.001,0,0.002,0,0.003,0.001c-0.362,0.61-0.971,0.879-1.578,0.892l-0.005-0.007
			c0.133-0.467,0.391-0.885,0.753-1.078c0.05,0.048,0.124,0.053,0.178,0.009c0.059-0.046,0.067-0.13,0.021-0.188
			c-0.047-0.058-0.132-0.068-0.189-0.02c-0.035,0.029-0.05,0.07-0.047,0.114c-0.395,0.205-0.669,0.642-0.807,1.132
			c-0.205-0.501-0.296-1.05-0.205-1.477c0.043-0.205,0.147-0.461,0.396-0.59c0.048,0.051,0.126,0.059,0.182,0.014
			c0.058-0.047,0.067-0.132,0.021-0.19c-0.048-0.058-0.132-0.066-0.189-0.02c-0.035,0.028-0.05,0.068-0.048,0.109
			c-0.229,0.117-0.384,0.341-0.452,0.658c-0.011,0.056-0.02,0.113-0.026,0.17c-0.04,0.373,0.03,0.805,0.178,1.215
			c-0.312-0.289-0.567-0.655-0.65-0.982c-0.034-0.131-0.047-0.303,0.033-0.445c0.043,0.013,0.087,0.008,0.123-0.02
			c0.059-0.048,0.067-0.132,0.021-0.189c-0.049-0.058-0.132-0.068-0.19-0.02c-0.053,0.043-0.062,0.118-0.027,0.173
			c-0.042,0.067-0.067,0.141-0.077,0.225c-0.01,0.092-0.001,0.191,0.026,0.301c0.095,0.377,0.397,0.792,0.758,1.102
			c-0.235-0.02-0.465-0.076-0.674-0.167c-0.543-0.233-0.821-0.637-0.743-1.053c0.024-0.001,0.05-0.009,0.072-0.024
			c0.058-0.048,0.066-0.133,0.02-0.191c-0.047-0.057-0.131-0.067-0.189-0.02c-0.058,0.046-0.066,0.132-0.021,0.189
			c0.009,0.01,0.018,0.017,0.029,0.023c-0.005,0.026-0.011,0.053-0.014,0.078c-0.047,0.433,0.253,0.844,0.807,1.083
			c0.221,0.096,0.464,0.151,0.712,0.171l-0.103,0.083c-0.427,0.144-0.868,0.146-1.099,0.049c0.006-0.038,0-0.076-0.025-0.109
			c-0.048-0.058-0.131-0.067-0.19-0.02c-0.058,0.048-0.067,0.131-0.02,0.188c0.045,0.059,0.13,0.068,0.188,0.021
			c0.224,0.099,0.596,0.102,0.966,0.014l-1.187,0.958c-0.264,0.211-0.324,0.136-0.516,0.29c-0.193,0.156-0.709,0.685-0.747,0.776
			c-0.009,0.021-0.006,0.035,0.001,0.044C25.944,21.099,25.957,21.104,25.98,21.1z"/>
		<path fill="#FFFFFF" d="M25.105,38.13c-0.039-0.083-0.128-0.125-0.215-0.111c-0.375-0.57-1.14-0.849-2.017-0.798
			c-0.343-0.494-0.512-0.939-0.51-1.229c0-0.01,0.002-0.019,0-0.028c0.006-0.11,0.036-0.196,0.093-0.251
			c0.012-0.011,0.025-0.019,0.039-0.029c0.081-0.055,0.181-0.074,0.298-0.055c0.33,0.055,0.703,0.378,1.02,0.872
			c-0.059,0.074-0.059,0.183,0.005,0.256c0.073,0.085,0.2,0.094,0.285,0.021c0.084-0.072,0.093-0.199,0.02-0.284
			c-0.049-0.057-0.123-0.08-0.193-0.065c-0.337-0.526-0.743-0.871-1.109-0.937c0.196-0.085,0.417-0.138,0.651-0.152
			c0.001,0,0.002,0,0.004,0c0.322,0.065,0.622,0.336,0.875,0.784c-0.066,0.074-0.069,0.188-0.002,0.265
			c0.073,0.085,0.2,0.094,0.285,0.022c0.084-0.074,0.092-0.201,0.02-0.286c-0.046-0.053-0.115-0.077-0.18-0.066
			c-0.186-0.33-0.394-0.566-0.622-0.71c0.258,0.026,0.523,0.096,0.776,0.212c0.16,0.491,0.446,0.879,0.843,1.089
			c-0.006,0.087,0.044,0.171,0.131,0.202c0.104,0.04,0.221-0.014,0.258-0.119c0.038-0.104-0.015-0.221-0.12-0.259
			c-0.076-0.027-0.16-0.007-0.213,0.049c-0.324-0.174-0.565-0.482-0.718-0.869c0.189,0.105,0.37,0.239,0.535,0.401
			c-0.059,0.074-0.059,0.184,0.006,0.257c0.073,0.085,0.201,0.093,0.285,0.021c0.084-0.073,0.093-0.201,0.021-0.285
			c-0.048-0.056-0.12-0.078-0.188-0.066c-0.22-0.221-0.468-0.392-0.726-0.519c-0.062-0.206-0.101-0.432-0.116-0.672
			c0.02,0,0.039,0,0.059,0c0.188,0.481,0.557,0.893,1.055,1.129c-0.004,0.085,0.045,0.168,0.131,0.198
			c0.105,0.039,0.22-0.014,0.259-0.119c0.039-0.104-0.016-0.221-0.119-0.26c-0.079-0.028-0.164-0.006-0.216,0.053
			c-0.443-0.211-0.773-0.571-0.954-0.995c0.149,0.011,0.29,0.037,0.424,0.078c0.042,0.04,0.088,0.08,0.136,0.118
			c-0.033,0.104,0.02,0.215,0.122,0.254c0.096,0.034,0.2-0.011,0.245-0.101c0.006,0.005,0.012,0.009,0.017,0.013
			c-0.032,0.07-0.023,0.155,0.03,0.217c0.073,0.084,0.201,0.094,0.286,0.021c0.085-0.073,0.093-0.201,0.021-0.286
			c-0.06-0.069-0.158-0.086-0.237-0.051c-0.033-0.028-0.07-0.055-0.105-0.081c-0.021-0.05-0.062-0.093-0.116-0.113
			c-0.025-0.01-0.052-0.012-0.08-0.01c-0.075-0.039-0.155-0.072-0.239-0.102c-0.395-0.375-0.523-0.749-0.541-1.049
			c0.006,0.008,0.013,0.017,0.019,0.023c0.206,0.385,0.69,0.778,1.34,1.048c-0.001,0.086,0.048,0.165,0.132,0.195
			c0.104,0.038,0.221-0.016,0.259-0.12c0.039-0.104-0.015-0.221-0.12-0.259c-0.08-0.03-0.166-0.003-0.22,0.056
			c-0.11-0.048-0.214-0.099-0.314-0.153c0.02,0.01,0.042,0.017,0.064,0.017c0.111,0.01,0.208-0.074,0.217-0.184
			c0.002-0.035-0.005-0.066-0.018-0.095c0.204,0.016,0.422,0.008,0.659-0.038c0.021,0.035,0.055,0.063,0.098,0.078
			c0.104,0.038,0.221-0.016,0.259-0.12c0.038-0.104-0.016-0.221-0.12-0.259c-0.104-0.038-0.22,0.016-0.259,0.121
			c-0.005,0.014-0.008,0.027-0.01,0.044c-0.821,0.16-1.446-0.138-1.743-0.462c-0.113-0.124-0.176-0.254-0.176-0.351
			c0.014-0.026,0.034-0.05,0.05-0.076c0.263,0.204,0.577,0.349,0.924,0.407c0.019,0.083,0.089,0.148,0.18,0.156
			c0.112,0.009,0.208-0.074,0.217-0.185c0.009-0.111-0.074-0.21-0.186-0.219c-0.083-0.006-0.158,0.039-0.195,0.108
			c-0.325-0.055-0.618-0.193-0.864-0.386c0.042-0.054,0.088-0.108,0.138-0.158c0.043-0.023,0.091-0.04,0.142-0.056
			c0.022,0.079,0.088,0.141,0.176,0.149c0.105,0.007,0.197-0.067,0.213-0.171c0.253,0.035,0.528,0.156,0.796,0.354
			c-0.033,0.103,0.019,0.215,0.122,0.251c0.104,0.039,0.221-0.016,0.258-0.119c0.039-0.104-0.016-0.221-0.12-0.258
			c-0.06-0.023-0.124-0.013-0.174,0.017c-0.308-0.228-0.625-0.361-0.916-0.389c-0.023-0.033-0.054-0.056-0.091-0.07
			c0.086-0.048,0.176-0.092,0.274-0.126c0.051-0.02,0.104-0.033,0.156-0.048c0.034,0.051,0.086,0.084,0.15,0.089
			c0.1,0.01,0.184-0.059,0.208-0.151c0.371-0.039,0.745,0.022,1.07,0.175c-0.013,0.092,0.04,0.182,0.13,0.215
			c0.105,0.038,0.221-0.015,0.259-0.12c0.039-0.102-0.016-0.22-0.119-0.259c-0.074-0.025-0.151-0.007-0.206,0.042
			c-0.35-0.166-0.75-0.23-1.15-0.192c-0.031-0.06-0.089-0.105-0.16-0.11c-0.085-0.006-0.163,0.04-0.198,0.112
			c-0.155-0.02-0.306-0.048-0.447-0.085c0.116-0.124,0.245-0.233,0.382-0.319c0.17-0.042,0.348-0.104,0.529-0.195
			c0.031,0.027,0.07,0.047,0.116,0.048c0.065,0.007,0.125-0.022,0.166-0.07c0.053,0.004,0.107,0.013,0.163,0.024
			c0.006,0.077,0.056,0.147,0.132,0.176c0.105,0.04,0.221-0.015,0.259-0.12c0.039-0.104-0.016-0.221-0.12-0.259
			c-0.087-0.03-0.179,0-0.231,0.07c-0.051-0.012-0.102-0.012-0.153-0.019c0.001-0.105-0.078-0.195-0.184-0.203
			c-0.112-0.01-0.208,0.073-0.217,0.185c-0.001,0.009,0,0.017,0,0.026c-0.176,0.034-0.343,0.102-0.5,0.196
			c0.385-0.361,0.818-0.585,1.241-0.631c0.424,0.404,0.922,0.629,1.417,0.593c0.042,0.078,0.129,0.122,0.22,0.104
			c0.108-0.022,0.178-0.13,0.155-0.239c-0.021-0.109-0.129-0.178-0.237-0.155c-0.081,0.016-0.14,0.078-0.157,0.153
			c-0.414,0.027-0.831-0.147-1.2-0.462c0.082,0.003,0.163,0.01,0.243,0.027c0.006,0.076,0.053,0.146,0.131,0.173
			c0.105,0.04,0.22-0.015,0.259-0.118c0.038-0.105-0.015-0.222-0.12-0.26c-0.086-0.031-0.18,0-0.231,0.07
			c-0.141-0.03-0.284-0.038-0.428-0.028c-0.204-0.204-0.391-0.448-0.546-0.733c0.152,0.171,0.328,0.318,0.525,0.433
			c0.548,0.318,1.217,0.379,1.945,0.183c0.045,0.063,0.125,0.098,0.205,0.08c0.109-0.022,0.179-0.131,0.154-0.239
			c-0.021-0.109-0.129-0.178-0.238-0.155c-0.09,0.019-0.153,0.096-0.158,0.182c-0.691,0.186-1.325,0.13-1.84-0.169
			c-0.199-0.115-0.374-0.27-0.525-0.448c0.014,0.004,0.027,0.009,0.041,0.011c0.041,0.028,0.083,0.052,0.127,0.074
			c0.463,0.234,1.045,0.229,1.653-0.006c0.048,0.051,0.117,0.077,0.188,0.063c0.109-0.023,0.18-0.13,0.158-0.239
			c-0.023-0.109-0.131-0.18-0.24-0.155c-0.098,0.02-0.164,0.107-0.159,0.204c-0.571,0.22-1.111,0.227-1.539,0.012
			c-0.008-0.005-0.016-0.011-0.023-0.016c0.03-0.032,0.052-0.073,0.056-0.12c0.008-0.11-0.075-0.208-0.186-0.217
			c-0.077-0.007-0.147,0.032-0.186,0.095c-0.003-0.002-0.006-0.002-0.009-0.002c-0.09-0.093-0.167-0.198-0.23-0.317
			c0.041,0.027,0.083,0.05,0.129,0.068c0.197,0.075,0.604,0.137,1.211-0.249c0.044,0.034,0.102,0.047,0.16,0.035
			c0.108-0.022,0.179-0.131,0.156-0.238c-0.023-0.11-0.129-0.181-0.239-0.158c-0.109,0.022-0.179,0.13-0.157,0.24
			c0,0.001,0.002,0.004,0.002,0.006c-0.553,0.349-0.912,0.301-1.083,0.233c-0.167-0.063-0.288-0.196-0.325-0.354
			c-0.003-0.016-0.006-0.028-0.008-0.045c-0.003-0.053,0.017-0.105,0.061-0.161c0.221-0.275,0.933-0.495,1.702-0.537
			c0.035,0.088,0.131,0.141,0.228,0.121c0.109-0.021,0.18-0.129,0.156-0.238c-0.022-0.108-0.129-0.178-0.238-0.156
			c-0.074,0.017-0.128,0.069-0.148,0.136c-0.481,0.026-0.934,0.118-1.275,0.253c0-0.001,0-0.003,0.001-0.003
			c0.008-0.112-0.074-0.21-0.186-0.218c-0.093-0.008-0.172,0.049-0.205,0.131c-0.013,0-0.026,0.004-0.04,0.005
			c0.057-0.178,0.145-0.347,0.268-0.496c0.316-0.38,0.804-0.606,1.358-0.638c0.035,0.088,0.13,0.143,0.227,0.121
			c0.109-0.022,0.18-0.129,0.156-0.239c-0.022-0.109-0.129-0.179-0.239-0.157c-0.072,0.017-0.125,0.069-0.148,0.135
			c-0.594,0.034-1.12,0.277-1.461,0.688c-0.109,0.132-0.194,0.278-0.258,0.433c0.042-0.466,0.194-0.892,0.437-1.177
			c0.151-0.179,0.335-0.29,0.538-0.341c0.001,0,0.002-0.001,0.004-0.001c0.035-0.01,0.069-0.02,0.104-0.024
			c0.037,0.088,0.131,0.139,0.228,0.12c0.109-0.023,0.179-0.13,0.156-0.239c-0.023-0.108-0.13-0.178-0.239-0.155
			c-0.035,0.007-0.065,0.023-0.09,0.045c-0.01-0.032-0.023-0.062-0.048-0.086c-0.079-0.079-0.207-0.079-0.285,0
			c-0.058,0.058-0.073,0.142-0.046,0.213c-0.145,0.111-0.312,0.186-0.494,0.235c0.212-0.437,0.525-0.763,0.916-0.904
			c0.046,0.062,0.125,0.096,0.204,0.08c0.11-0.024,0.179-0.131,0.156-0.24c-0.022-0.108-0.129-0.179-0.239-0.156
			c-0.09,0.019-0.153,0.096-0.158,0.182c-0.458,0.162-0.818,0.553-1.046,1.075c-0.444,0.071-0.958-0.015-1.471-0.25
			c0.579,0.092,1.194-0.062,1.674-0.466c0.078,0.041,0.174,0.03,0.236-0.035c0.08-0.079,0.079-0.207,0-0.286
			c-0.079-0.078-0.207-0.078-0.287,0.001c-0.058,0.06-0.073,0.146-0.044,0.218c-0.62,0.518-1.483,0.594-2.16,0.224
			c0.323,0.077,0.747,0.058,1.272-0.198c0.08,0.073,0.203,0.071,0.279-0.005c0.08-0.08,0.078-0.208,0-0.286
			c-0.079-0.079-0.207-0.079-0.285,0.001c-0.045,0.046-0.063,0.108-0.055,0.167c-0.603,0.292-1.058,0.251-1.37,0.125
			c0.442-0.011,1.021-0.292,1.554-0.784c0.075,0.037,0.169,0.025,0.232-0.039c0.078-0.079,0.078-0.205,0-0.285
			c-0.081-0.08-0.208-0.08-0.286,0c-0.061,0.061-0.075,0.149-0.042,0.223c-0.447,0.408-0.939,0.669-1.327,0.728
			c0.441-0.171,0.97-0.643,1.169-1.469c0.042-0.006,0.081-0.025,0.113-0.057c0.079-0.079,0.079-0.207,0-0.285
			c-0.079-0.079-0.206-0.078-0.286,0c-0.079,0.079-0.079,0.207,0,0.287c0.012,0.011,0.023,0.018,0.036,0.027
			c-0.196,0.812-0.729,1.256-1.148,1.391c-0.16,0.051-0.303,0.055-0.392,0.013c-0.088-0.115-0.158-0.246-0.21-0.387
			c-0.003-0.04,0.001-0.081,0.007-0.123c0.055,0.023,0.118,0.025,0.173-0.007c0.098-0.055,0.132-0.177,0.077-0.275
			c-0.026-0.047-0.069-0.078-0.117-0.093c0.137-0.221,0.365-0.428,0.664-0.592c0.079,0.073,0.202,0.07,0.28-0.007
			c0.079-0.079,0.079-0.207,0-0.286c-0.08-0.078-0.207-0.078-0.286,0.002c-0.045,0.045-0.063,0.106-0.056,0.166
			c-0.372,0.202-0.642,0.461-0.78,0.747c-0.022,0.016-0.04,0.038-0.052,0.061c-0.014-0.126-0.019-0.254-0.007-0.387
			c0.052-0.558,0.318-1.073,0.721-1.411c0.079,0.049,0.183,0.039,0.25-0.029c0.078-0.079,0.078-0.207,0-0.286
			c-0.08-0.079-0.207-0.079-0.286,0c-0.056,0.056-0.07,0.135-0.048,0.204c-0.434,0.363-0.72,0.914-0.774,1.51
			c-0.017,0.178-0.008,0.349,0.018,0.513c-0.034,0.014-0.068,0.031-0.099,0.048c-0.381-0.608-0.521-1.312-0.112-1.854
			c0.072,0.027,0.157,0.013,0.215-0.047c0.078-0.08,0.077-0.206-0.001-0.286c-0.08-0.079-0.207-0.078-0.286,0.001
			c-0.064,0.064-0.074,0.162-0.033,0.239c-0.239,0.312-0.312,0.67-0.271,1.035c-0.227-0.677-0.192-1.332,0.147-1.785
			c0.072,0.026,0.155,0.012,0.212-0.046c0.079-0.08,0.08-0.207,0-0.285c-0.079-0.08-0.207-0.08-0.286,0
			c-0.064,0.065-0.075,0.164-0.032,0.239c-0.533,0.704-0.388,1.858,0.314,2.87c-0.21,0.154-0.379,0.385-0.499,0.69
			c-0.031,0.077-0.058,0.159-0.082,0.244c-0.03,0.102-0.05,0.206-0.069,0.315c-0.233,0.024-0.458,0.022-0.677-0.001
			c-0.003-0.028-0.009-0.057-0.011-0.085c-0.011-0.131-0.004-0.283,0.041-0.427c0.21-0.101,0.424-0.241,0.597-0.441
			c0.106,0.033,0.219-0.024,0.254-0.128c0.034-0.107-0.024-0.222-0.13-0.255c-0.105-0.034-0.22,0.024-0.255,0.129
			c-0.02,0.06-0.008,0.12,0.023,0.168c-0.028,0.031-0.058,0.06-0.086,0.088c-0.005-0.021-0.009-0.041-0.02-0.061
			c-0.055-0.097-0.178-0.132-0.275-0.077c-0.088,0.05-0.121,0.159-0.083,0.251c-0.056,0.065-0.099,0.142-0.131,0.224
			c-0.199,0.088-0.391,0.137-0.531,0.167c-0.166,0.033-0.333,0.046-0.488,0.047c0.001-0.003,0.001-0.007,0.002-0.01
			c0.039,0.002,0.078-0.002,0.113-0.021c0.097-0.056,0.131-0.178,0.076-0.275c-0.045-0.083-0.141-0.117-0.229-0.091
			c0.61-0.437,1.071-1.039,1.161-1.721c0.063-0.017,0.118-0.062,0.139-0.129c0.035-0.105-0.022-0.219-0.128-0.254
			c-0.105-0.035-0.22,0.023-0.255,0.129c-0.032,0.097,0.018,0.198,0.106,0.241c-0.11,0.823-0.793,1.526-1.618,1.932
			c-0.055-0.075-0.108-0.151-0.16-0.227c-0.016-0.071-0.025-0.149-0.025-0.232c0.001-0.155,0.038-0.657,0.482-1.044
			c0.006,0.002,0.011,0.007,0.018,0.01c0.105,0.035,0.221-0.022,0.255-0.128c0.035-0.106-0.022-0.221-0.127-0.255
			c-0.107-0.035-0.221,0.022-0.255,0.129c-0.016,0.05-0.011,0.101,0.01,0.146c-0.321,0.286-0.511,0.688-0.518,1.113
			c-0.259-0.442-0.443-0.901-0.497-1.302c0.075-0.071,0.143-0.148,0.205-0.224c0.109,0.008,0.22,0.011,0.327,0.001
			c1.28-0.011,2.344-0.599,2.597-1.473c0.087-0.011,0.159-0.079,0.172-0.17c0.017-0.11-0.06-0.213-0.17-0.228
			c-0.111-0.017-0.214,0.059-0.23,0.169c-0.012,0.08,0.026,0.157,0.091,0.199c-0.188,0.635-0.843,1.104-1.702,1.285
			c0.521-0.27,0.925-0.76,1.071-1.369c0.085-0.013,0.155-0.079,0.168-0.168c0.018-0.111-0.059-0.212-0.169-0.229
			c-0.111-0.017-0.214,0.06-0.229,0.17c-0.012,0.083,0.029,0.16,0.095,0.202c-0.191,0.785-0.84,1.359-1.605,1.464
			c0.306-0.131,0.636-0.398,0.906-0.917c0.107,0.012,0.206-0.062,0.221-0.17c0.017-0.109-0.061-0.212-0.17-0.229
			c-0.11-0.017-0.213,0.061-0.229,0.17c-0.01,0.064,0.013,0.124,0.054,0.168c-0.311,0.593-0.7,0.831-1.026,0.914
			c0.349-0.271,0.648-0.84,0.784-1.553c0.083-0.016,0.151-0.082,0.165-0.169c0.015-0.109-0.062-0.213-0.171-0.229
			c-0.11-0.015-0.212,0.06-0.229,0.17c-0.013,0.084,0.03,0.165,0.1,0.204c-0.09,0.458-0.254,0.86-0.452,1.147
			c0.06-0.178,0.089-0.359,0.083-0.542c0.079-0.038,0.126-0.124,0.112-0.215c-0.013-0.073-0.065-0.127-0.129-0.152
			c-0.018-0.232-0.071-0.479-0.182-0.739c0.028-0.03,0.051-0.068,0.057-0.113c0.016-0.108-0.062-0.211-0.171-0.228
			c-0.11-0.016-0.213,0.06-0.229,0.169c-0.015,0.11,0.061,0.213,0.17,0.23c0.016,0.002,0.03,0.001,0.046,0.001
			c0.101,0.24,0.15,0.467,0.168,0.682c-0.088,0.033-0.146,0.122-0.13,0.218c0.013,0.075,0.065,0.131,0.13,0.154
			c-0.016,0.15-0.048,0.285-0.092,0.407c-0.022-0.051-0.064-0.094-0.12-0.112c-0.106-0.034-0.219,0.023-0.254,0.129
			c-0.016,0.046-0.011,0.092,0.005,0.135c-0.053,0.063-0.092,0.139-0.123,0.222c0.009-0.135,0.004-0.275-0.021-0.423
			c0.067-0.042,0.106-0.122,0.092-0.204c-0.017-0.11-0.122-0.185-0.232-0.166c-0.111,0.019-0.185,0.123-0.167,0.232
			c0.017,0.089,0.086,0.152,0.17,0.166c0.031,0.192,0.028,0.372-0.004,0.539c-0.077-0.034-0.154-0.074-0.226-0.122
			c-0.036-0.042-0.068-0.089-0.096-0.143c-0.153-0.309-0.114-0.751,0.096-1.21c0.107,0.012,0.206-0.062,0.221-0.17
			c0.018-0.112-0.059-0.213-0.169-0.229c-0.111-0.015-0.213,0.061-0.229,0.17c-0.011,0.063,0.012,0.125,0.053,0.167
			c-0.131,0.282-0.199,0.555-0.204,0.803c-0.02-0.077-0.042-0.153-0.068-0.232c0.051-0.045,0.082-0.115,0.068-0.188
			c-0.018-0.11-0.123-0.184-0.232-0.165c-0.109,0.019-0.184,0.122-0.166,0.232c0.017,0.099,0.102,0.167,0.2,0.167
			c0.045,0.135,0.08,0.269,0.102,0.398c-0.044-0.057-0.086-0.117-0.124-0.18c-0.291-0.479-0.382-1.052-0.259-1.564
			c0.092-0.007,0.17-0.077,0.185-0.172c0.016-0.11-0.061-0.213-0.171-0.23c-0.11-0.015-0.212,0.061-0.229,0.172
			c-0.011,0.077,0.022,0.148,0.082,0.191c-0.134,0.549-0.036,1.161,0.274,1.674c0.08,0.132,0.17,0.251,0.272,0.355
			c0.002,0.05,0.003,0.098,0.003,0.146c-0.068-0.028-0.137-0.057-0.204-0.089c0.027-0.103-0.029-0.209-0.131-0.243
			c-0.074-0.024-0.15-0.001-0.203,0.05c-0.047-0.033-0.093-0.068-0.137-0.104c-0.002-0.017-0.003-0.033-0.005-0.049
			c0.075-0.041,0.118-0.124,0.104-0.209c-0.019-0.11-0.122-0.185-0.231-0.166c-0.071,0.011-0.125,0.061-0.15,0.123
			c-0.154-0.212-0.245-0.459-0.241-0.74c0.074-0.021,0.133-0.083,0.146-0.165c0.017-0.111-0.06-0.213-0.17-0.229
			c-0.11-0.016-0.213,0.061-0.229,0.169c-0.014,0.092,0.036,0.176,0.115,0.213c-0.007,0.392,0.146,0.725,0.397,0.994
			c-0.585-0.411-0.946-0.958-0.942-1.523c0.074-0.021,0.131-0.083,0.144-0.163c0.017-0.112-0.06-0.214-0.17-0.23
			c-0.11-0.016-0.213,0.06-0.229,0.169c-0.014,0.092,0.037,0.177,0.116,0.214c-0.007,0.682,0.471,1.34,1.228,1.788
			c0.079,0.917-0.126,1.558-0.417,1.621c-0.017,0.003-0.033,0.004-0.049,0.005c-0.096,0.005-0.193-0.03-0.283-0.108
			c-0.253-0.218-0.404-0.688-0.419-1.275c0.089-0.033,0.146-0.124,0.129-0.222c-0.018-0.108-0.122-0.184-0.232-0.166
			C16.056,23.126,15.98,23.231,16,23.34c0.013,0.075,0.065,0.133,0.132,0.155c0.017,0.626,0.184,1.131,0.463,1.376
			c-0.105-0.016-0.211-0.039-0.316-0.073c-0.011-0.048-0.022-0.097-0.04-0.145c0.001,0,0.001-0.001,0.001-0.001
			c0.081-0.076,0.084-0.204,0.008-0.285c-0.078-0.08-0.206-0.083-0.286-0.005c-0.08,0.078-0.083,0.204-0.005,0.286
			c0.041,0.044,0.097,0.061,0.154,0.059c0.003,0.011,0.005,0.022,0.008,0.033c-0.053-0.022-0.106-0.047-0.158-0.074
			c-0.001-0.002-0.002-0.002-0.002-0.002c-0.242-0.222-0.358-0.609-0.341-1.125c0.096-0.03,0.156-0.125,0.139-0.227
			c-0.015-0.083-0.079-0.145-0.156-0.163c0.055-0.395,0-0.77-0.177-1.085c0.053-0.07,0.056-0.169,0.001-0.242
			c-0.068-0.089-0.194-0.106-0.283-0.039c-0.088,0.068-0.106,0.193-0.038,0.283c0.049,0.065,0.13,0.091,0.205,0.075
			c0.166,0.298,0.21,0.654,0.152,1.031c-0.072,0.042-0.114,0.121-0.101,0.207c0.005,0.032,0.018,0.059,0.036,0.083
			c-0.051,0.178-0.123,0.357-0.217,0.535c-0.025-0.033-0.051-0.066-0.074-0.102c0.057-0.46-0.036-0.943-0.299-1.364
			c0.05-0.07,0.051-0.167-0.002-0.239c-0.068-0.09-0.193-0.107-0.283-0.039c-0.088,0.067-0.106,0.193-0.039,0.282
			c0.051,0.068,0.135,0.094,0.211,0.075c0.021,0.033,0.035,0.068,0.053,0.102c-0.036-0.017-0.074-0.025-0.115-0.019
			c-0.109,0.019-0.183,0.123-0.166,0.233c0.012,0.074,0.063,0.129,0.127,0.154c0.015,0.059,0.035,0.114,0.052,0.17
			c-0.007-0.012-0.009-0.023-0.017-0.034c-0.066-0.089-0.193-0.106-0.282-0.04c-0.089,0.067-0.107,0.194-0.04,0.283
			c0.039,0.052,0.098,0.077,0.157,0.08c0.117,0.363,0.131,0.662,0.092,0.907c-0.083-0.056-0.16-0.117-0.23-0.183
			c-0.068-0.246-0.182-0.51-0.341-0.776c0.003-0.022,0.004-0.045,0-0.068c-0.014-0.081-0.073-0.139-0.145-0.16
			c0.045-0.068,0.046-0.161-0.006-0.231c-0.067-0.089-0.193-0.106-0.282-0.039c-0.088,0.067-0.106,0.194-0.039,0.283
			c0.028,0.035,0.065,0.059,0.105,0.07c-0.027,0.041-0.04,0.09-0.031,0.144c0.015,0.091,0.09,0.155,0.176,0.166
			c0.081,0.255,0.229,0.482,0.432,0.679c0.041,0.154,0.065,0.299,0.066,0.429c-0.107-0.461-0.5-1.052-1.29-1.364
			c0-0.042-0.013-0.084-0.04-0.12c-0.066-0.087-0.193-0.105-0.283-0.039c-0.088,0.068-0.105,0.194-0.039,0.283
			c0.068,0.089,0.195,0.106,0.282,0.039c0.013-0.009,0.024-0.02,0.034-0.032c0.777,0.309,1.141,0.898,1.215,1.334
			c0.029,0.163,0.013,0.307-0.042,0.388c-0.126,0.071-0.265,0.12-0.413,0.153c-0.056-0.003-0.112-0.014-0.169-0.033
			c-0.328-0.107-0.618-0.444-0.796-0.917c0.084-0.068,0.1-0.191,0.034-0.277c-0.062-0.083-0.174-0.101-0.261-0.051
			c-0.106-0.263-0.264-0.487-0.474-0.657c0.023-0.083-0.011-0.176-0.089-0.224c-0.096-0.056-0.22-0.026-0.277,0.069
			s-0.026,0.22,0.069,0.277c0.07,0.042,0.155,0.037,0.218-0.006c0.208,0.17,0.359,0.402,0.457,0.675
			c-0.011,0.054,0,0.112,0.035,0.16c0.005,0.005,0.012,0.009,0.017,0.015c0.065,0.252,0.086,0.531,0.062,0.827
			c-0.072-0.025-0.144-0.062-0.212-0.101c-0.007-0.018-0.012-0.034-0.02-0.05c-0.143-0.305-0.364-0.55-0.645-0.727
			c0.008-0.052-0.001-0.106-0.035-0.151c-0.068-0.089-0.195-0.106-0.284-0.039c-0.008,0.005-0.013,0.016-0.021,0.023
			c-0.082-0.031-0.167-0.06-0.256-0.081c-0.009-0.058-0.041-0.112-0.095-0.145c-0.095-0.057-0.22-0.026-0.276,0.068
			c-0.057,0.097-0.026,0.221,0.068,0.277c0.094,0.058,0.217,0.028,0.274-0.066c0.08,0.02,0.155,0.045,0.229,0.072
			c-0.002,0.045,0.009,0.092,0.039,0.131c0.047,0.062,0.121,0.089,0.194,0.077c0.064,0.103,0.137,0.197,0.219,0.287
			c-0.093-0.046-0.207-0.016-0.262,0.074c-0.058,0.096-0.026,0.22,0.068,0.276c0.055,0.034,0.119,0.037,0.176,0.016
			c0.187,0.228,0.302,0.438,0.372,0.634c-0.18-0.056-0.348-0.153-0.494-0.298c0.038-0.067,0.035-0.153-0.016-0.218
			c-0.067-0.089-0.194-0.106-0.282-0.039c-0.073,0.054-0.095,0.15-0.065,0.23c-0.12-0.052-0.25-0.102-0.387-0.141
			c-0.005-0.061-0.039-0.119-0.097-0.153c-0.095-0.058-0.219-0.026-0.275,0.069c-0.019,0.029-0.025,0.063-0.026,0.096
			c-0.005,0.004-0.011,0.004-0.015,0.007c-0.088,0.067-0.108,0.193-0.04,0.282c0.056,0.074,0.151,0.096,0.233,0.065
			c0.135,0.137,0.296,0.243,0.476,0.322c-0.1-0.019-0.194,0.04-0.225,0.136c-0.002-0.002-0.004-0.005-0.007-0.008
			c0.053-0.095,0.024-0.217-0.07-0.272c-0.096-0.058-0.219-0.028-0.276,0.068c-0.058,0.096-0.028,0.22,0.068,0.276
			c0.054,0.034,0.119,0.036,0.173,0.017c0.46,0.535,0.829,0.789,1.122,0.769c0.018-0.001,0.035-0.007,0.053-0.011
			c-0.016,0.021-0.033,0.042-0.051,0.063c-0.084,0.062-0.197,0.101-0.332,0.115c-0.319-0.205-0.703-0.344-1.14-0.408
			c-0.017-0.075-0.076-0.138-0.157-0.154c-0.021-0.004-0.043-0.002-0.063,0c-0.02-0.019-0.04-0.035-0.058-0.055
			c0.051-0.095,0.021-0.214-0.072-0.27c-0.095-0.057-0.22-0.027-0.277,0.068c-0.057,0.096-0.027,0.22,0.068,0.277
			c0.055,0.033,0.12,0.036,0.175,0.015c0.011,0.012,0.023,0.021,0.034,0.033c-0.021,0.024-0.038,0.054-0.046,0.089
			c-0.022,0.108,0.048,0.214,0.157,0.237c0.074,0.015,0.144-0.014,0.189-0.067c0.412,0.297,0.847,0.398,1.153,0.377
			c0,0,0.001,0,0.002,0c0.017,0.012,0.033,0.025,0.05,0.036c-0.178,0.138-0.371,0.236-0.571,0.291
			c-0.104-0.016-0.209-0.029-0.32-0.033c-0.023-0.065-0.077-0.119-0.149-0.132c-0.108-0.023-0.213,0.047-0.236,0.154
			c-0.151-0.047-0.296-0.115-0.434-0.214c0.03-0.088-0.004-0.187-0.087-0.238c-0.094-0.057-0.219-0.027-0.276,0.068
			c-0.058,0.095-0.026,0.22,0.069,0.278c0.066,0.039,0.145,0.036,0.206-0.001c0.173,0.127,0.359,0.216,0.551,0.263
			c0.029,0.042,0.073,0.074,0.127,0.085c0.062,0.012,0.122-0.007,0.167-0.046c0.083,0.002,0.167-0.001,0.253-0.014
			c0.048-0.008,0.094-0.017,0.141-0.03c0.016,0.002,0.031,0.004,0.045,0.007c-0.185,0.1-0.381,0.179-0.587,0.226
			c-0.086-0.043-0.179-0.083-0.279-0.12c-0.003-0.11-0.092-0.198-0.203-0.198c-0.111,0.001-0.201,0.092-0.201,0.203
			c0,0.056,0.023,0.106,0.06,0.143c-0.337-0.048-0.65-0.2-0.924-0.452c0.042-0.092,0.01-0.202-0.079-0.256
			c-0.095-0.058-0.219-0.026-0.276,0.069c-0.058,0.095-0.027,0.22,0.068,0.277c0.061,0.035,0.131,0.036,0.19,0.009
			c0.411,0.379,0.904,0.552,1.437,0.5c0.061-0.006,0.121-0.019,0.182-0.03c0.081,0.04,0.155,0.084,0.226,0.128
			c-0.579,0.34-1.188,0.438-1.683,0.228c0.009-0.076-0.025-0.154-0.096-0.196c-0.094-0.057-0.22-0.026-0.276,0.068
			c-0.057,0.096-0.026,0.22,0.069,0.277c0.079,0.047,0.176,0.034,0.241-0.025c0.552,0.238,1.231,0.121,1.866-0.267
			c0.143,0.107,0.259,0.227,0.349,0.362c-0.016,0.002-0.03,0.002-0.045,0.003c-0.029-0.046-0.075-0.082-0.133-0.094
			c-0.11-0.022-0.215,0.048-0.237,0.156c-0.023,0.11,0.047,0.216,0.156,0.238c0.109,0.023,0.216-0.047,0.238-0.156
			c0.002,0,0.002-0.002,0.002-0.005c0.035-0.005,0.066-0.008,0.1-0.01c0.136,0.256,0.198,0.556,0.205,0.907
			c-0.297-0.038-0.631-0.119-0.963-0.241c0-0.095-0.065-0.181-0.162-0.2c-0.078-0.017-0.152,0.016-0.198,0.073
			c-0.111-0.039-0.227-0.07-0.358-0.085c-0.023-0.085-0.099-0.147-0.189-0.147c-0.112,0-0.202,0.092-0.202,0.205
			c0.001,0.11,0.092,0.2,0.203,0.198c0.082,0.001,0.149-0.049,0.182-0.117c0.118,0.014,0.224,0.042,0.324,0.079
			c0.004,0.091,0.065,0.17,0.158,0.189c0.056,0.011,0.11-0.002,0.153-0.032c0.274,0.193,0.5,0.496,0.735,0.922
			c-0.319-0.136-0.665-0.177-1.033-0.132c-0.027-0.052-0.075-0.096-0.137-0.109c-0.11-0.021-0.215,0.049-0.238,0.158
			c-0.001,0.009,0,0.015,0,0.022c-0.174,0.047-0.354,0.112-0.537,0.197c-0.037-0.035-0.087-0.058-0.141-0.058
			c-0.112,0-0.202,0.093-0.202,0.203c0,0.112,0.092,0.201,0.203,0.201c0.022,0,0.043-0.007,0.062-0.012
			c-0.022,0.049-0.025,0.105-0.002,0.159c0.044,0.103,0.164,0.149,0.266,0.106c0.075-0.034,0.119-0.106,0.121-0.184
			c0.142-0.039,0.29-0.05,0.439-0.042c-0.022,0.016-0.047,0.032-0.07,0.051c-0.028-0.016-0.06-0.028-0.096-0.026
			c-0.112,0-0.202,0.089-0.202,0.201c0.001,0.111,0.091,0.201,0.203,0.201c0.111-0.001,0.201-0.091,0.201-0.201
			c0-0.025-0.006-0.05-0.015-0.071c0.063-0.049,0.127-0.09,0.192-0.129c0.02,0.004,0.04,0.005,0.061,0.01
			c-0.059,0.025-0.106,0.075-0.12,0.144c-0.022,0.109,0.048,0.215,0.158,0.237c0.074,0.016,0.146-0.014,0.191-0.066
			c0.08,0.022,0.16,0.035,0.241,0.04c-0.049,0.045-0.1,0.092-0.15,0.134c-0.256-0.016-0.518,0.017-0.774,0.101
			c-0.055-0.064-0.149-0.09-0.232-0.055c-0.102,0.044-0.149,0.163-0.104,0.266c0.045,0.103,0.163,0.149,0.265,0.104
			c0.006-0.002,0.01-0.005,0.015-0.009c0,0.035,0.007,0.07,0.023,0.101c0,0.001-0.002,0.002-0.002,0.002
			c-0.038-0.042-0.091-0.07-0.151-0.07c-0.111,0-0.201,0.092-0.201,0.202c0.001,0.112,0.091,0.203,0.203,0.201
			c0.111,0,0.202-0.091,0.201-0.203c-0.001,0-0.001,0-0.001,0c0.023-0.008,0.048-0.023,0.073-0.035c0.004,0,0.007,0.004,0.012,0.004
			c0.089,0.019,0.177-0.026,0.217-0.104c0.077,0.007,0.154,0.003,0.229-0.005c-0.045,0.058-0.06,0.133-0.029,0.203
			c0.043,0.103,0.162,0.15,0.266,0.105c0.059-0.025,0.098-0.076,0.113-0.134c0.084-0.007,0.165-0.008,0.241-0.007
			c-0.092,0.166-0.198,0.312-0.314,0.437c-0.113,0.032-0.227,0.067-0.344,0.111c-0.055-0.062-0.147-0.084-0.229-0.051
			c-0.102,0.047-0.148,0.165-0.105,0.267c0.018,0.04,0.049,0.069,0.084,0.09c-0.083,0.035-0.168,0.065-0.257,0.088
			c-0.036-0.056-0.097-0.096-0.168-0.096c-0.112,0-0.202,0.092-0.202,0.203c0,0.111,0.092,0.201,0.202,0.201
			c0.102-0.001,0.181-0.078,0.196-0.173c0.339-0.088,0.633-0.256,0.878-0.503c0.004-0.004,0.007-0.009,0.01-0.012
			c0.417-0.111,0.809-0.137,1.107-0.078c-0.001,0.004-0.001,0.007-0.001,0.011c-0.471,0.009-1.112,0.253-1.59,0.929
			c-0.04-0.01-0.084-0.007-0.126,0.01c-0.103,0.046-0.15,0.165-0.105,0.267c0.044,0.103,0.163,0.149,0.266,0.105
			c0.103-0.045,0.15-0.163,0.105-0.267c-0.007-0.013-0.015-0.026-0.024-0.038c0.443-0.625,1.028-0.854,1.462-0.866
			c-0.06,0.485-0.262,0.91-0.604,1.231c-0.023-0.013-0.048-0.021-0.076-0.025c-0.055-0.038-0.126-0.051-0.193-0.022
			c-0.103,0.045-0.15,0.163-0.104,0.266c0.029,0.068,0.092,0.109,0.162,0.117c0.034,0.024,0.072,0.043,0.116,0.043
			c0.111,0,0.201-0.092,0.201-0.203c0.254-0.042,0.48-0.114,0.665-0.22c0.004,0.003,0.005,0.008,0.012,0.012
			c0.067,0.047,0.153,0.045,0.219,0.005c-0.019,0.046-0.038,0.092-0.061,0.138c-0.255,0.498-0.693,0.879-1.193,1.042
			c-0.054-0.072-0.154-0.102-0.242-0.065c-0.102,0.044-0.149,0.163-0.104,0.267c0.04,0.103,0.159,0.148,0.262,0.104
			c0.071-0.032,0.115-0.098,0.119-0.17c0.538-0.177,1.007-0.582,1.279-1.114c0.081-0.16,0.137-0.322,0.173-0.485
			c0.035-0.016,0.068-0.033,0.103-0.046c0.138,0.72,0.015,1.444-0.577,1.801c-0.056-0.051-0.141-0.068-0.216-0.036
			c-0.103,0.045-0.15,0.163-0.104,0.265c0.043,0.103,0.163,0.15,0.265,0.105c0.084-0.036,0.13-0.123,0.12-0.209
			c0.337-0.201,0.54-0.507,0.635-0.861c-0.022,0.392-0.118,0.745-0.276,1.037c-0.142,0.164-0.279,0.327-0.413,0.489
			c-0.035,0.025-0.069,0.054-0.106,0.076c-0.057-0.051-0.14-0.066-0.215-0.035c-0.103,0.045-0.15,0.163-0.105,0.266
			c0.02,0.046,0.056,0.079,0.098,0.099C9.213,39.727,5.686,44.234,5,44.973c0,0.327,0,1.296,0.399,1.967
			c2.01-1.851,4.912-8.036,8.704-12.055c0.017-0.002,0.033-0.004,0.051-0.004c0.256-0.006,0.545,0.044,0.836,0.136
			c-0.834,0.295-1.559,0.926-1.848,1.898c-0.422,0.154-0.762,0.409-0.961,0.756c-0.086-0.009-0.173,0.039-0.208,0.124
			c-0.042,0.103,0.008,0.22,0.112,0.263c0.102,0.042,0.22-0.008,0.262-0.111c0.031-0.077,0.012-0.16-0.041-0.215
			c0.145-0.25,0.373-0.447,0.654-0.59c0,0.001,0,0.001-0.001,0.002c-0.062,0.092-0.038,0.216,0.055,0.278
			c0.052,0.037,0.118,0.042,0.175,0.021c-0.063,0.097-0.119,0.202-0.168,0.317c-0.08,0-0.154,0.048-0.187,0.126
			c-0.041,0.102,0.009,0.221,0.112,0.262c0.103,0.043,0.221-0.008,0.263-0.111c0.034-0.082,0.008-0.174-0.057-0.228
			c0.144-0.351,0.368-0.598,0.665-0.738c0.237-0.111,0.495-0.148,0.756-0.138c-0.022,0.024-0.042,0.049-0.063,0.07
			c-0.089-0.046-0.201-0.021-0.259,0.064c-0.033,0.047-0.04,0.105-0.029,0.158c-0.37,0.27-0.634,0.714-0.762,1.275
			c-0.068,0.01-0.129,0.054-0.156,0.121c-0.042,0.104,0.007,0.221,0.11,0.264c0.103,0.042,0.222-0.01,0.263-0.111
			c0.037-0.093,0-0.196-0.081-0.246c0.119-0.524,0.363-0.938,0.702-1.189c0.002,0.002,0.003,0.005,0.006,0.007
			c0.092,0.063,0.218,0.039,0.28-0.053c0.025-0.039,0.034-0.083,0.031-0.125c0.235-0.09,0.489-0.115,0.746-0.067
			c-0.37,0.168-0.796,0.691-1.116,1.407c-0.083-0.004-0.164,0.043-0.197,0.126c-0.042,0.102,0.007,0.22,0.111,0.262
			c0.103,0.041,0.222-0.007,0.264-0.11c0.031-0.08,0.009-0.168-0.05-0.224c0.426-0.954,1-1.469,1.305-1.363
			c0.014,0.007,0.028,0.016,0.044,0.021c0.084,0.047,0.149,0.126,0.184,0.24c0.059,0.188,0.04,0.435-0.045,0.708
			c-0.084-0.031-0.18-0.006-0.233,0.07c-0.063,0.092-0.039,0.218,0.052,0.28c0.011,0.008,0.022,0.01,0.034,0.014
			c-0.036,0.075-0.076,0.153-0.122,0.23c-0.092-0.019-0.189,0.03-0.226,0.122c-0.042,0.104,0.008,0.222,0.111,0.263
			c0.103,0.042,0.222-0.008,0.262-0.109c0.03-0.07,0.014-0.147-0.03-0.203c0.059-0.1,0.109-0.2,0.153-0.298
			c0.038-0.014,0.073-0.035,0.098-0.073c0.038-0.054,0.042-0.119,0.021-0.178c0.125-0.118,0.217-0.267,0.278-0.433
			c-0.015,0.085-0.025,0.171-0.024,0.259c-0.08,0.035-0.13,0.12-0.119,0.211c0.017,0.11,0.118,0.188,0.229,0.171
			c0.051-0.006,0.091-0.033,0.123-0.07c-0.047,0.201-0.145,0.419-0.295,0.649c-0.098-0.026-0.2,0.022-0.238,0.118
			c-0.042,0.104,0.008,0.222,0.111,0.262c0.104,0.042,0.221-0.008,0.263-0.11c0.027-0.067,0.017-0.138-0.022-0.191
			c0.208-0.316,0.325-0.609,0.35-0.878c0.188,0.487,0.231,1.071,0.051,1.651c-0.093-0.019-0.189,0.03-0.227,0.121
			c-0.042,0.104,0.008,0.223,0.111,0.262c0.104,0.043,0.222-0.008,0.263-0.111c0.028-0.067,0.016-0.141-0.027-0.196
			c0.25-0.761,0.126-1.536-0.205-2.113c-0.025-0.087-0.064-0.171-0.114-0.247c0.174,0.121,0.333,0.253,0.475,0.392
			c-0.052,0.043-0.083,0.109-0.072,0.182c0.016,0.11,0.118,0.188,0.227,0.171c0.044-0.007,0.081-0.028,0.109-0.058
			c0.4,0.507,0.58,1.072,0.455,1.579c-0.077,0.003-0.147,0.05-0.179,0.125c-0.042,0.104,0.009,0.222,0.111,0.264
			c0.104,0.041,0.222-0.009,0.264-0.112c0.034-0.085,0.005-0.181-0.062-0.232c0.145-0.571-0.065-1.209-0.527-1.769
			c0-0.009,0.002-0.017,0-0.025c-0.011-0.083-0.072-0.147-0.148-0.166c-0.031-0.644,0.259-1.236,0.731-1.612
			c0.01,0.046,0.036,0.09,0.077,0.121c-0.125,0.195-0.229,0.444-0.292,0.768c-0.106,0.019-0.18,0.117-0.164,0.225
			c0.016,0.109,0.117,0.188,0.227,0.171c0.111-0.016,0.188-0.117,0.173-0.228c-0.011-0.064-0.048-0.116-0.1-0.146
			c0.062-0.321,0.17-0.564,0.295-0.751c0.057-0.005,0.112-0.033,0.148-0.085c0.027-0.04,0.036-0.087,0.031-0.133
			c0.081-0.081,0.167-0.146,0.25-0.197c-0.258,0.358-0.382,0.988-0.312,1.712c-0.074,0.037-0.121,0.12-0.109,0.207
			c0.015,0.111,0.118,0.188,0.228,0.171c0.11-0.015,0.188-0.117,0.171-0.228c-0.012-0.085-0.075-0.147-0.153-0.168
			c-0.056-0.602,0.034-1.151,0.221-1.497c-0.13,0.456-0.073,1.162,0.465,1.818c-0.02,0.036-0.029,0.08-0.022,0.125
			c0.016,0.109,0.118,0.187,0.228,0.171c0.11-0.016,0.188-0.116,0.17-0.229c-0.015-0.11-0.118-0.187-0.227-0.171
			c-0.016,0.002-0.03,0.006-0.044,0.011c-0.529-0.646-0.561-1.338-0.416-1.754c0.055-0.157,0.138-0.273,0.224-0.32
			c0.145,0,0.291,0.023,0.434,0.067c0.047,0.03,0.093,0.067,0.133,0.112c0.236,0.251,0.323,0.688,0.251,1.187
			c-0.106,0.02-0.18,0.119-0.164,0.227c0.016,0.111,0.117,0.187,0.228,0.17c0.11-0.016,0.187-0.118,0.171-0.227
			c-0.009-0.064-0.047-0.117-0.098-0.146c0.069-0.475,0.005-0.89-0.188-1.181c0.124,0.07,0.245,0.154,0.357,0.258
			c0.414,0.376,0.665,0.9,0.691,1.426c-0.074,0.029-0.124,0.1-0.127,0.181c-0.987,0.723-1.499,1.758-1.229,2.594
			c-0.066,0.057-0.088,0.152-0.048,0.236c0.047,0.101,0.169,0.145,0.269,0.096c0.102-0.049,0.143-0.17,0.095-0.271
			c-0.035-0.073-0.109-0.115-0.185-0.113c-0.215-0.679,0.129-1.502,0.842-2.158c-0.13,0.19-0.23,0.396-0.296,0.613
			c-0.178,0.609-0.077,1.274,0.286,1.934c-0.051,0.059-0.064,0.145-0.029,0.218c0.048,0.103,0.169,0.144,0.27,0.096
			c0.099-0.049,0.143-0.169,0.094-0.27c-0.039-0.083-0.127-0.124-0.213-0.11c-0.344-0.628-0.441-1.256-0.273-1.827
			c0.071-0.239,0.189-0.463,0.345-0.664c-0.032,0.073-0.059,0.149-0.077,0.23c-0.118,0.505,0.026,1.068,0.398,1.604
			c-0.039,0.058-0.047,0.132-0.016,0.2c0.049,0.101,0.169,0.142,0.27,0.094c0.1-0.048,0.143-0.169,0.095-0.269
			c-0.042-0.089-0.143-0.132-0.236-0.106c-0.35-0.501-0.483-1.026-0.376-1.491c0.036-0.156,0.103-0.301,0.191-0.43
			c0.017,0.001,0.035,0.006,0.053,0.003c0.061-0.009,0.109-0.046,0.14-0.093c-0.011,0.126,0.005,0.313,0.119,0.542
			c0.041,0.117,0.094,0.229,0.16,0.332c-0.047,0.072-0.043,0.173,0.017,0.241c0.056,0.065,0.145,0.084,0.222,0.056
			c0.001,0.024,0.005,0.05,0.017,0.073c0.048,0.103,0.169,0.145,0.27,0.096c0.1-0.047,0.142-0.169,0.094-0.269
			c-0.045-0.095-0.155-0.137-0.252-0.1c-0.001-0.042-0.015-0.086-0.045-0.12c-0.041-0.048-0.1-0.071-0.158-0.068
			c-0.077-0.095-0.137-0.183-0.182-0.265c-0.073-0.2-0.103-0.421-0.092-0.654c0.044-0.123,0.127-0.226,0.239-0.283
			c0.002,0,0.006-0.001,0.009-0.003c0.062,0.206,0.167,0.403,0.327,0.59c-0.035,0.072-0.028,0.16,0.028,0.223
			c0.072,0.084,0.199,0.095,0.283,0.021c0.085-0.072,0.093-0.2,0.021-0.285c-0.059-0.066-0.152-0.086-0.229-0.053
			c-0.138-0.162-0.231-0.332-0.29-0.508c0.021,0.005,0.041,0.008,0.063,0.02c0.319,0.147,0.702,0.786,0.925,1.525
			c-0.078,0.057-0.107,0.159-0.063,0.25c0.048,0.101,0.169,0.142,0.269,0.094c0.101-0.048,0.144-0.169,0.095-0.269
			c-0.032-0.068-0.097-0.108-0.166-0.113c-0.228-0.757-0.616-1.401-0.963-1.593c0.104-0.022,0.21-0.027,0.318-0.025
			c0.137,0.234,0.326,0.457,0.568,0.659c-0.022,0.065-0.01,0.141,0.039,0.195c0.073,0.085,0.201,0.095,0.285,0.021
			c0.085-0.073,0.093-0.199,0.021-0.284c-0.066-0.075-0.175-0.091-0.257-0.04c-0.189-0.159-0.344-0.331-0.465-0.51
			c0.01,0,0.019,0.003,0.029,0.001c0.016-0.001,0.028-0.009,0.042-0.016c0.124,0.026,0.245,0.062,0.362,0.119
			c0.444,0.215,0.781,0.636,0.942,1.167c-0.078,0.057-0.107,0.16-0.064,0.252c0.048,0.099,0.168,0.142,0.27,0.094
			c0.101-0.048,0.143-0.169,0.095-0.269c-0.032-0.067-0.097-0.108-0.166-0.113c-0.127-0.419-0.357-0.771-0.66-1.024
			c0.066,0.024,0.143,0.016,0.201-0.034c0.081-0.07,0.091-0.192,0.025-0.275c0.064,0.022,0.127,0.046,0.185,0.074
			c0.246,0.124,0.418,0.309,0.509,0.541c-0.077,0.056-0.104,0.161-0.062,0.249c0.047,0.101,0.168,0.144,0.269,0.096
			c0.101-0.05,0.143-0.169,0.095-0.269c-0.032-0.068-0.098-0.109-0.168-0.114c-0.102-0.27-0.297-0.484-0.579-0.627
			c-0.156-0.077-0.332-0.131-0.52-0.161c0.761-0.013,1.412,0.243,1.74,0.738c-0.051,0.059-0.064,0.142-0.029,0.216
			c0.048,0.101,0.169,0.143,0.27,0.096C25.111,38.353,25.153,38.231,25.105,38.13z M25.893,34.499
			c-0.128-0.07-0.249-0.145-0.358-0.222c0.079,0.032,0.161,0.061,0.244,0.077C25.792,34.419,25.835,34.472,25.893,34.499z
			 M25.825,34.184c-0.01,0.011-0.019,0.021-0.026,0.033c-0.231-0.05-0.445-0.167-0.636-0.329
			C25.337,34.015,25.561,34.12,25.825,34.184z M13.898,23.636c0.064,0.114,0.119,0.228,0.167,0.339
			C13.995,23.869,13.937,23.756,13.898,23.636z M10.583,26.986c0.228,0.051,0.436,0.124,0.627,0.218
			C11.02,27.178,10.802,27.11,10.583,26.986z M10.053,28.1c0.014-0.009,0.029-0.019,0.04-0.03c0.023,0.007,0.042,0.017,0.065,0.025
			C10.123,28.098,10.088,28.1,10.053,28.1z M9.731,31.927c0-0.001,0-0.004,0-0.004c0.008-0.003,0.017-0.003,0.026-0.008
			C9.748,31.919,9.739,31.923,9.731,31.927z M10.002,32.018c-0.026-0.055-0.076-0.099-0.141-0.112c-0.021-0.004-0.042-0.002-0.062,0
			c0.161-0.046,0.324-0.073,0.485-0.078C10.193,31.897,10.098,31.96,10.002,32.018z M10.214,33.048c0-0.004,0.001-0.008,0.001-0.011
			c0.011-0.005,0.021-0.008,0.032-0.012C10.236,33.032,10.226,33.042,10.214,33.048z M16.472,37.935
			c0,0.001,0.001,0.003,0.001,0.004c0.024,0.086,0.033,0.179,0.028,0.273c-0.025-0.052-0.07-0.092-0.125-0.107
			c0-0.091,0.012-0.183,0.029-0.271C16.428,37.867,16.451,37.899,16.472,37.935z M20.067,34.784l-0.323-0.675
			c0.001-0.053-0.017-0.107-0.056-0.147c0.106-0.167,0.287-0.3,0.521-0.38c0.051-0.018,0.103-0.032,0.154-0.044l0.456,0.528
			C20.513,34.278,20.25,34.524,20.067,34.784z M19.748,31.059c0.007-0.019,0-0.038-0.027-0.061
			c-0.005-0.005-0.015-0.011-0.025-0.017c0-0.004,0.001-0.008,0.001-0.011l2.422,0.188c-0.183,0.215-0.344,0.474-0.464,0.763
			l-1.498-0.55c-0.272-0.101-0.373-0.188-0.474-0.267c0.004-0.002,0.012-0.002,0.016-0.004
			C19.733,31.093,19.746,31.075,19.748,31.059z M20.973,28.525c0.262,0.054,0.565,0.074,0.874,0.054l-1.974,1.107
			c0.048-0.079,0.115-0.172,0.239-0.296L20.973,28.525z M22.446,26.562c0.066-0.009,0.131-0.021,0.194-0.035l-0.215,0.216
			C22.431,26.684,22.438,26.623,22.446,26.562z M19.963,29.894l2.131-1.197c-0.231,0.288-0.422,0.665-0.515,0.994
			c-0.021,0.072-0.036,0.143-0.047,0.21c-0.015,0.003-0.029,0.005-0.042,0.014c-0.014,0.007-0.022,0.019-0.034,0.029l-1.282,0.271
			c-0.304,0.064-0.433,0.035-0.57,0.022c-0.008-0.018-0.013-0.037-0.02-0.053C19.659,30.104,19.752,30.012,19.963,29.894z
			 M24.239,30.514c-0.415-0.133-0.73-0.415-0.945-0.681c-0.011-0.013-0.02-0.028-0.031-0.044l1.364-0.288
			C24.46,29.798,24.326,30.14,24.239,30.514z M24.808,29.462l0.008-0.001c-0.006,0.006-0.013,0.012-0.019,0.018
			C24.802,29.474,24.806,29.469,24.808,29.462z M23.186,29.921c0.301,0.372,0.647,0.615,1.024,0.73
			c-0.029,0.144-0.052,0.291-0.067,0.442l-1.399-0.11c-0.296-0.234-0.396-0.629-0.428-0.904c-0.003-0.028-0.001-0.059-0.004-0.089
			l0.803-0.169C23.138,29.854,23.16,29.89,23.186,29.921z M24.35,30.688c0.004,0.001,0.009,0.003,0.014,0.003
			c-0.006,0.012-0.015,0.022-0.022,0.033C24.344,30.714,24.348,30.701,24.35,30.688z M25.223,32.214
			c-0.063,0.096-0.125,0.193-0.183,0.298c-0.417-0.251-0.617-0.553-0.705-0.817C24.522,31.905,24.834,32.088,25.223,32.214z
			 M24.537,31.692c0.234,0.127,0.56,0.209,0.932,0.194c-0.057,0.065-0.11,0.134-0.163,0.206
			C24.987,31.99,24.72,31.852,24.537,31.692z M24.975,32.635c-0.012,0.02-0.023,0.041-0.033,0.063
			c-0.008-0.012-0.016-0.025-0.025-0.035c-0.062-0.055-0.151-0.065-0.223-0.03c-0.061-0.053-0.126-0.099-0.195-0.139
			c-0.098-0.171-0.17-0.357-0.211-0.554C24.409,32.179,24.622,32.425,24.975,32.635z M24.202,32.358
			c-0.177-0.058-0.368-0.084-0.566-0.074c-0.011,0-0.021,0.002-0.033,0.004c-0.195,0.013-0.391,0.061-0.58,0.136l-0.568-0.208
			c0.236-0.273,0.502-0.477,0.782-0.577c0.007,0.01,0.012,0.022,0.023,0.032c0.083,0.073,0.21,0.067,0.285-0.016
			c0.069-0.077,0.066-0.189,0-0.265c0.03-0.032,0.048-0.071,0.053-0.114l0.525,0.041c0,0.013,0,0.024,0,0.035
			c-0.002,0.02-0.008,0.039-0.008,0.058c-0.012,0.155-0.005,0.307,0.017,0.456C24.146,32.034,24.169,32.199,24.202,32.358z
			 M24.239,32.52c0.034,0.138,0.074,0.268,0.121,0.393l-1.127-0.413c0.126-0.037,0.254-0.066,0.381-0.074
			C23.835,32.41,24.047,32.443,24.239,32.52z M21.824,33.356c0.12-0.361,0.287-0.684,0.486-0.957l0.428,0.158
			C22.406,32.74,22.094,33.01,21.824,33.356z M21.222,34.19l-0.12-0.139c0.12-0.071,0.241-0.141,0.367-0.201
			c-0.051,0.072-0.104,0.144-0.16,0.221C21.281,34.11,21.251,34.15,21.222,34.19z M19.478,31.596
			c0.025-0.038,0.047-0.076,0.067-0.116c0.128,0.004,0.261,0.002,0.535,0.102l1.498,0.55c-0.116,0.359-0.165,0.752-0.092,1.15
			c0.01,0.051,0.023,0.105,0.038,0.16L19.478,31.596z M21.163,33.417c-0.178-0.044-0.36-0.063-0.541-0.054
			c-0.034,0.001-0.069,0.01-0.104,0.013l-1.283-1.484c0.039-0.037,0.075-0.074,0.11-0.115L21.163,33.417z M23.198,31.505
			c-0.318,0.114-0.62,0.345-0.88,0.66l-0.533-0.196c0.127-0.308,0.306-0.58,0.504-0.794l0.08,0.006c0.003,0,0.006,0,0.008,0
			l0.498,0.039c0.103,0.045,0.216,0.08,0.34,0.093c0.003,0.013,0.005,0.026,0.011,0.039c0.007,0.011,0.017,0.019,0.026,0.03
			c-0.001,0.001-0.004,0.001-0.006,0.004C23.214,31.418,23.201,31.462,23.198,31.505z M21.622,33.257
			c-0.068-0.373-0.023-0.741,0.085-1.078l0.47,0.173c-0.216,0.303-0.396,0.663-0.517,1.064
			C21.646,33.362,21.632,33.309,21.622,33.257z M22.301,29.765c0.001-0.373,0.075-0.771,0.208-1.152
			c0.117,0.364,0.272,0.709,0.463,1.008L22.301,29.765z M22.161,29.795l-0.486,0.103c0.067-0.403,0.353-0.971,0.683-1.287
			c-0.02,0.061-0.039,0.122-0.057,0.185C22.207,29.129,22.159,29.471,22.161,29.795z M20.218,30.434l1.193-0.252
			c0.001,0.001,0.001,0.005,0.001,0.007c0.055,0.097,0.178,0.132,0.276,0.076c0.062-0.034,0.094-0.099,0.099-0.163l0.386-0.082
			c0.001,0.024,0.001,0.05,0.004,0.075c0.031,0.272,0.104,0.503,0.214,0.689c-0.051,0.003-0.099,0.025-0.135,0.065
			c-0.025,0.027-0.039,0.059-0.046,0.092l-2.502-0.196c-0.001-0.036-0.005-0.073-0.008-0.109
			C19.815,30.569,19.925,30.495,20.218,30.434z M19.063,32.034l1.201,1.39c-0.033,0.008-0.066,0.015-0.099,0.025
			c-0.241,0.083-0.427,0.219-0.552,0.386l-0.326-0.682c-0.219-0.458-0.087-0.519-0.247-0.854c-0.024-0.051-0.058-0.114-0.099-0.187
			C18.982,32.09,19.024,32.063,19.063,32.034z M20.63,33.505c0.27-0.012,0.547,0.042,0.8,0.154l0.042,0.036
			c-0.16,0.073-0.314,0.158-0.462,0.247L20.63,33.505z M20.914,34.176l0.174,0.202c-0.269,0.377-0.525,0.771-0.663,1.157
			l-0.286-0.598C20.316,34.664,20.587,34.4,20.914,34.176z M21.533,34.002c-0.024,0.176-0.033,0.349-0.027,0.515l-0.19-0.219
			c0.036-0.049,0.072-0.098,0.106-0.146C21.46,34.1,21.496,34.052,21.533,34.002z M20.325,35.843
			c-0.082-0.014-0.165-0.027-0.248-0.038c0.019-0.07,0-0.15-0.058-0.203c-0.026-0.023-0.057-0.036-0.089-0.043
			c-0.002-0.122,0.031-0.249,0.081-0.374L20.325,35.843z M21.181,34.485l0.366,0.423c0.067,0.379,0.214,0.718,0.441,0.986
			c-0.015,0.031-0.02,0.064-0.019,0.098c-0.12,0.132-0.229,0.269-0.326,0.406c-0.281-0.22-0.636-0.389-1.04-0.494l-0.087-0.184
			C20.625,35.314,20.892,34.892,21.181,34.485z M21.741,35.133l0.504,0.583c-0.024,0.021-0.048,0.046-0.072,0.068
			c-0.028-0.002-0.057,0.002-0.084,0.015C21.931,35.61,21.816,35.383,21.741,35.133z M21.565,36.513
			c-0.061,0.093-0.117,0.187-0.167,0.281c-0.121-0.305-0.339-0.533-0.613-0.695C21.085,36.199,21.348,36.342,21.565,36.513z
			 M21.312,36.967C21.311,36.967,21.311,36.967,21.312,36.967c-0.066,0.041-0.104,0.117-0.094,0.198
			c0.001,0.003,0.003,0.006,0.004,0.01c-0.001,0.004-0.003,0.009-0.005,0.013l-0.446-0.936
			C21.026,36.42,21.222,36.655,21.312,36.967z M21.763,36.5c0.034-0.053,0.065-0.106,0.101-0.156
			c-0.02,0.066-0.034,0.137-0.044,0.206C21.8,36.533,21.781,36.516,21.763,36.5z M22.413,35.568l-0.759-0.879
			c-0.024-0.257-0.013-0.532,0.038-0.818c0.222,0.413,0.64,0.841,1.405,1.147c0,0.025,0.005,0.051,0.013,0.073
			C22.872,35.224,22.637,35.382,22.413,35.568z M23.432,34.872c-0.082-0.075-0.211-0.067-0.284,0.014
			c-0.001,0.002-0.001,0.002-0.001,0.004c-0.781-0.315-1.178-0.758-1.374-1.172c0.066-0.025,0.133-0.05,0.201-0.07
			c0.398-0.129,1.686-0.452,2.211,0.531c-0.002,0.003-0.006,0.004-0.007,0.007c-0.074,0.082-0.068,0.21,0.015,0.285
			c0.083,0.075,0.211,0.067,0.286-0.016c0.004-0.004,0.006-0.01,0.009-0.015c-0.003,0.075-0.004,0.15-0.001,0.225
			c-0.326,0.025-0.67,0.112-1.014,0.256C23.46,34.903,23.448,34.886,23.432,34.872z M24.58,35.395
			c-0.358-0.146-0.733-0.208-1.087-0.192c-0.031-0.006-0.063-0.01-0.095-0.011c0.017-0.01,0.034-0.021,0.048-0.035
			c0.025-0.029,0.038-0.061,0.044-0.096c0.339-0.146,0.678-0.235,0.999-0.26C24.502,35.009,24.533,35.207,24.58,35.395z
			 M24.619,34.594c0.006,0.022,0.014,0.043,0.021,0.065c-0.007,0-0.014,0-0.018,0C24.622,34.637,24.619,34.616,24.619,34.594z
			 M25.087,34.694c-0.096-0.018-0.195-0.03-0.298-0.034c-0.08-0.236-0.119-0.484-0.102-0.737
			C24.736,34.16,24.853,34.424,25.087,34.694z M24.559,33.807c-0.027,0.139-0.046,0.278-0.059,0.415
			c-0.011-0.018-0.021-0.035-0.038-0.052c-0.044-0.038-0.099-0.054-0.152-0.05c-0.288-0.54-0.83-0.809-1.536-0.771
			c-0.261,0.015-0.543,0.068-0.844,0.166c-0.023,0.008-0.046,0.017-0.07,0.023c0.3-0.411,0.666-0.728,1.053-0.917l1.567,0.575
			c0.047,0.098,0.098,0.189,0.153,0.275C24.6,33.584,24.573,33.694,24.559,33.807z M25.103,32.705
			c0.007,0.005,0.016,0.008,0.022,0.014c-0.019,0.015-0.039,0.03-0.058,0.047C25.079,32.745,25.091,32.726,25.103,32.705z
			 M24.671,33.267l0.028,0.01c-0.002,0.009-0.005,0.018-0.008,0.023C24.686,33.29,24.679,33.278,24.671,33.267z M25.775,32.345
			c-0.003,0.002-0.008,0.003-0.012,0.005c-0.192,0.065-0.365,0.159-0.518,0.271c-0.025-0.012-0.049-0.024-0.073-0.036
			c0.069-0.111,0.144-0.22,0.226-0.317C25.519,32.299,25.645,32.324,25.775,32.345z M24.722,33.007
			c0.019,0.017,0.038,0.037,0.059,0.055c-0.001,0.001-0.002,0.004-0.002,0.006l-0.245-0.09c-0.049-0.118-0.094-0.241-0.131-0.371
			c0.054,0.09,0.118,0.174,0.185,0.253c0.009,0.039,0.029,0.075,0.061,0.105C24.669,32.984,24.694,32.997,24.722,33.007z
			 M26.286,29.862c0.176,0.418,0.409,0.782,0.678,1.072c-0.475,0.083-0.952,0.369-1.362,0.804c-0.439,0.051-0.816-0.05-1.061-0.202
			c-0.141-0.088-0.237-0.194-0.263-0.288c0.03-0.142,0.086-0.278,0.16-0.41c0.039-0.04,0.085-0.075,0.137-0.105
			c0.006-0.003,0.013-0.006,0.019-0.009c0.075,0.004,0.152,0.004,0.23,0c0.002,0.003,0.001,0.006,0.004,0.01
			c0.055,0.099,0.178,0.132,0.274,0.077c0.072-0.041,0.111-0.121,0.102-0.199c0.184,0.013,0.382,0.057,0.585,0.134
			c-0.005,0.109,0.076,0.201,0.186,0.21c0.111,0.008,0.208-0.074,0.216-0.187c0.01-0.111-0.074-0.207-0.185-0.217
			c-0.064-0.004-0.124,0.022-0.164,0.064c-0.257-0.1-0.504-0.147-0.73-0.149c-0.061-0.038-0.139-0.046-0.206-0.007
			c-0.013,0.005-0.02,0.018-0.03,0.025c-0.079,0.014-0.154,0.031-0.225,0.059c0.095-0.106,0.204-0.206,0.327-0.292
			C25.369,29.976,25.835,29.843,26.286,29.862z M25.933,29.286c0.055,0.005,0.105-0.013,0.144-0.045
			c0.042,0.167,0.092,0.326,0.15,0.48c-0.461-0.005-0.932,0.136-1.33,0.415c-0.176,0.123-0.326,0.267-0.446,0.426
			c-0.022-0.004-0.045-0.009-0.068-0.012c0.131-0.47,0.366-0.894,0.706-1.148l0.738-0.157C25.859,29.27,25.894,29.283,25.933,29.286
			z M26.252,28.435c0.016,0.043,0.047,0.078,0.086,0.103c-0.079,0.049-0.149,0.099-0.199,0.154c0.002-0.082,0.013-0.165,0.031-0.245
			C26.198,28.442,26.225,28.437,26.252,28.435z M25.955,28.491c0.009,0.133,0.027,0.269,0.05,0.405
			c-0.014-0.004-0.025-0.011-0.039-0.013c-0.091-0.006-0.172,0.049-0.204,0.131c-0.183,0.008-0.349,0.052-0.5,0.122l-0.265,0.058
			C25.269,28.843,25.598,28.597,25.955,28.491z M26.473,26.856c-0.008,0.009-0.017,0.016-0.025,0.025
			c-0.113,0.132-0.206,0.292-0.28,0.466c0.036-0.159,0.085-0.309,0.142-0.451C26.365,26.886,26.419,26.872,26.473,26.856z
			 M23.066,26.417c0.022,0.025,0.051,0.048,0.085,0.059c0.106,0.035,0.221-0.022,0.254-0.128c0.026-0.079,0-0.161-0.058-0.213
			l0.233-0.235c0.009,0.008,0.017,0.017,0.025,0.024c0.013,0.015,0.024,0.029,0.039,0.043c0.109,0.11,0.23,0.202,0.358,0.282
			c0.706,0.512,1.491,0.75,2.148,0.673c-0.154,0.417-0.229,0.907-0.206,1.428c-0.438,0.119-0.837,0.437-1.152,0.887l-1.671,0.355
			c-0.211-0.323-0.381-0.705-0.501-1.11c0.234,0.227,0.488,0.414,0.741,0.533c0.401,0.188,0.781,0.198,1.108,0.039
			c0.064,0.051,0.153,0.062,0.228,0.021c0.097-0.055,0.131-0.179,0.077-0.275c-0.055-0.096-0.177-0.131-0.274-0.077
			c-0.076,0.044-0.112,0.129-0.099,0.21c-0.29,0.139-0.617,0.125-0.98-0.043c-0.234-0.108-0.468-0.283-0.688-0.495
			c0.92,0.113,1.898-0.157,2.598-0.987c0.053,0.019,0.112,0.017,0.166-0.013c0.097-0.054,0.131-0.177,0.077-0.273
			c-0.055-0.099-0.176-0.132-0.275-0.078c-0.097,0.055-0.132,0.178-0.077,0.275c0,0.001,0.001,0.001,0.002,0.002
			c-0.687,0.811-1.654,1.057-2.553,0.925l-0.006-0.01c0.311-0.659,0.798-1.213,1.382-1.409c0.06,0.083,0.169,0.11,0.26,0.061
			c0.097-0.054,0.132-0.177,0.077-0.275c-0.054-0.098-0.177-0.132-0.275-0.076c-0.059,0.033-0.092,0.093-0.098,0.156
			c-0.633,0.207-1.149,0.784-1.473,1.474c-0.074-0.323-0.116-0.653-0.123-0.971c0.033-0.024,0.062-0.056,0.076-0.098
			c0.012-0.034,0.009-0.069,0.003-0.102L23.066,26.417z M22.261,27.229c0.003,0,0.006,0,0.01,0c0.007,0.242,0.034,0.491,0.08,0.738
			c-0.122-0.158-0.232-0.325-0.329-0.497L22.261,27.229z M21.918,27.574c0.123,0.212,0.266,0.418,0.424,0.608
			c-0.26-0.066-0.511-0.165-0.742-0.289L21.918,27.574z M22.32,28.313l-0.172,0.096c-0.376,0.062-0.749,0.052-1.059-0.003
			l0.41-0.413C21.754,28.133,22.03,28.241,22.32,28.313z M23.228,25.199c0.013,0.051,0.026,0.103,0.042,0.153
			c-0.031-0.042-0.063-0.085-0.093-0.128C23.193,25.214,23.21,25.208,23.228,25.199z M22.602,25.932
			c0.084-0.214,0.224-0.459,0.448-0.627c0.112,0.15,0.237,0.297,0.373,0.438l-0.591,0.594c-0.123,0.035-0.244,0.062-0.365,0.081
			C22.498,26.244,22.542,26.082,22.602,25.932z M22.3,26.58c-0.01,0.083-0.017,0.167-0.023,0.253
			c-0.076,0.009-0.145,0.06-0.17,0.138c-0.01,0.03-0.011,0.061-0.007,0.089c-0.081,0.035-0.167,0.052-0.255,0.061
			c-0.08-0.182-0.139-0.362-0.176-0.537C21.882,26.603,22.092,26.599,22.3,26.58z M21.92,27.253l-0.01,0.009
			c0-0.002-0.002-0.005-0.003-0.007C21.911,27.253,21.916,27.253,21.92,27.253z M21.386,27.769
			c-0.468-0.303-0.765-0.679-0.865-1.064c0.188,0.161,0.381,0.295,0.573,0.39c0.231,0.115,0.453,0.17,0.661,0.17
			c0.016,0.034,0.034,0.069,0.051,0.102L21.4,27.775C21.397,27.773,21.391,27.771,21.386,27.769z M21.301,27.875l-0.143,0.145
			c-0.024-0.043-0.062-0.078-0.112-0.094c-0.057-0.02-0.114-0.01-0.161,0.017c-0.39-0.377-0.856-1.224-0.917-1.807
			c0.121,0.146,0.25,0.281,0.381,0.407C20.398,27.025,20.729,27.504,21.301,27.875z M21.795,25.704
			c-0.001,0-0.002,0.001-0.004,0.002c0.001,0,0.001-0.002,0.002-0.003C21.793,25.704,21.795,25.704,21.795,25.704z M21.062,26.127
			c0.123-0.024,0.283-0.066,0.453-0.131c-0.021,0.112-0.032,0.233-0.021,0.369c0.001,0.019,0.006,0.039,0.008,0.057
			c-0.331-0.048-0.638-0.136-0.907-0.242C20.747,26.174,20.904,26.159,21.062,26.127z M21.523,26.563
			c0.034,0.182,0.093,0.371,0.17,0.562c-0.169-0.01-0.347-0.059-0.538-0.154c-0.224-0.112-0.452-0.286-0.672-0.493
			c-0.004-0.065,0-0.13,0.007-0.194C20.835,26.426,21.181,26.519,21.523,26.563z M20.36,26.225
			c-0.007,0.038-0.015,0.076-0.017,0.115c-0.06-0.064-0.122-0.126-0.181-0.194c0.012,0.002,0.024,0.006,0.037,0.007
			C20.252,26.181,20.307,26.202,20.36,26.225z M20.397,25.721c-0.041,0.06-0.048,0.141-0.009,0.209
			c0.009,0.018,0.022,0.028,0.035,0.041c-0.009,0.021-0.016,0.043-0.022,0.064c-0.056-0.003-0.11-0.009-0.161-0.016
			c-0.065-0.032-0.127-0.065-0.186-0.096C20.174,25.861,20.287,25.793,20.397,25.721z M19.636,26.324L18.8,28.879
			c-0.078,0.238-0.151,0.347-0.218,0.439c-0.066-0.018-0.133-0.03-0.197-0.038c-0.021-0.153-0.069-0.274-0.019-0.612l0.254-1.727
			C18.96,26.827,19.335,26.629,19.636,26.324z M12.926,32.701l-0.314,0.136c-0.108-0.527-0.373-1.18-0.831-1.662
			c0.016-0.021,0.03-0.044,0.045-0.064c0.505,0.187,0.941,0.521,1.14,0.884c-0.038,0.037-0.061,0.087-0.06,0.145
			c0.001,0.112,0.091,0.202,0.203,0.202c0.111-0.001,0.201-0.092,0.2-0.204c0-0.111-0.091-0.202-0.202-0.2
			c-0.004,0-0.008,0.002-0.012,0.002c-0.19-0.358-0.578-0.682-1.045-0.891l4.03-0.075c0.337-0.002,0.45,0.061,0.596,0.104
			l-3.472,1.504c-0.089-0.045-0.199-0.021-0.256,0.063C12.937,32.663,12.93,32.683,12.926,32.701z M12.876,29.768l0.811,0.166
			c-0.056,0.077-0.053,0.184,0.015,0.256c0.076,0.08,0.205,0.083,0.285,0.005c0.052-0.051,0.069-0.121,0.054-0.188l2.641,0.539
			c-0.005,0.032-0.009,0.063-0.012,0.097c-0.144,0.042-0.257,0.106-0.591,0.106l-4.075,0.075c0.014-0.027,0.03-0.052,0.043-0.077
			c0.169-0.093,0.32-0.201,0.445-0.329C12.678,30.231,12.808,30.011,12.876,29.768z M12.249,28.016
			c-0.005-0.062-0.038-0.115-0.085-0.148c-0.027-0.042-0.055-0.084-0.085-0.125c-0.083-0.112-0.176-0.212-0.279-0.307
			c0.075-0.1,0.149-0.202,0.218-0.312l0.006,0.004c0.194,0.337,0.323,0.755,0.367,1.218C12.352,28.233,12.305,28.122,12.249,28.016z
			 M12.272,28.442c-0.003-0.001-0.006-0.001-0.01-0.003c-0.002-0.02-0.007-0.038-0.01-0.059
			C12.258,28.401,12.265,28.422,12.272,28.442z M11.849,28.022c-0.016-0.011-0.032-0.02-0.049-0.03
			c-0.008-0.029-0.021-0.058-0.042-0.079c-0.052-0.056-0.127-0.071-0.196-0.054c-0.028-0.014-0.059-0.028-0.089-0.039
			c0.083-0.087,0.163-0.179,0.241-0.273c0.092,0.085,0.178,0.177,0.253,0.278c0.004,0.005,0.007,0.011,0.011,0.017
			C11.905,27.871,11.853,27.94,11.849,28.022z M12.132,26.933c0.004-0.008,0.008-0.014,0.013-0.021
			c0.013-0.019,0.025-0.037,0.037-0.056c0.007-0.01,0.011-0.021,0.016-0.032c0.041,0.085,0.088,0.162,0.143,0.234L12.132,26.933z
			 M12.244,27.264l1.56,0.939c-0.344,0.206-0.706,0.323-1.055,0.322c-0.073,0-0.143-0.008-0.211-0.017
			C12.514,28.047,12.412,27.621,12.244,27.264z M16.873,25.587c0.075,0.119,0.161,0.226,0.262,0.317l0.582,3.435
			c-0.105,0.035-0.206,0.08-0.301,0.137c-0.058-0.053-0.123-0.123-0.199-0.226l-1.109-1.468c0.052-0.009,0.104-0.016,0.155-0.029
			c0.28-0.074,0.499-0.217,0.634-0.41c0.06,0.011,0.123-0.004,0.17-0.051c0.081-0.077,0.083-0.205,0.007-0.285
			c-0.077-0.081-0.206-0.083-0.287-0.006c-0.076,0.074-0.08,0.194-0.011,0.275c-0.12,0.159-0.308,0.279-0.548,0.343
			c-0.071,0.018-0.143,0.029-0.217,0.036l-0.406-0.538c0.665-0.381,1.165-0.916,1.186-1.458c0.021-0.009,0.041-0.02,0.058-0.036
			C16.86,25.612,16.864,25.599,16.873,25.587z M17.779,26.937c-0.034,0.105,0.023,0.222,0.129,0.255
			c0.107,0.034,0.22-0.023,0.255-0.13c0-0.002,0-0.006,0-0.009c0.068-0.009,0.144-0.025,0.22-0.044l-0.24,1.627
			c-0.055,0.373-0.147,0.456-0.213,0.622l-0.535-3.168c0.298,0.172,0.664,0.264,1.086,0.255l-0.076,0.517
			c-0.088,0.023-0.174,0.042-0.251,0.052c-0.023-0.049-0.064-0.089-0.12-0.107C17.927,26.773,17.813,26.832,17.779,26.937z
			 M17.363,25.904l-0.155-0.917c0.049-0.01,0.099-0.019,0.147-0.03c0.005-0.001,0.012-0.002,0.019-0.003
			c0.021-0.005,0.042-0.012,0.064-0.017c0.007,0.019,0.014,0.039,0.022,0.058c0.173,0.339,0.61,0.6,1.107,0.77l-0.065,0.441
			C18.048,26.216,17.661,26.113,17.363,25.904z M14.933,27.825c-0.006-0.051-0.015-0.106-0.026-0.163l1.929,2.014
			c-0.121-0.027-0.25-0.056-0.49-0.199l-1.469-0.886C14.935,28.346,14.962,28.088,14.933,27.825z M14.753,28.517l-0.308-0.186
			c0.125-0.201,0.233-0.42,0.323-0.652c0.01,0.055,0.021,0.109,0.025,0.163C14.82,28.072,14.801,28.298,14.753,28.517z
			 M15.264,27.713c0.173,0.057,0.355,0.089,0.534,0.092c0.015,0,0.029-0.001,0.044-0.001l1.195,1.582
			c0.074,0.098,0.123,0.176,0.158,0.244c-0.015,0.014-0.032,0.029-0.047,0.043c-0.02-0.019-0.04-0.035-0.062-0.06L15.264,27.713z
			 M16.229,29.667c0.375,0.226,0.372,0.35,0.565,0.502c-0.022,0.052-0.042,0.104-0.06,0.157l-2.509-0.512
			c0.246-0.27,0.46-0.615,0.589-1.001L16.229,29.667z M15.734,27.66c-0.247-0.017-0.495-0.087-0.718-0.208l-0.039-0.04
			c0.147-0.055,0.29-0.119,0.429-0.187L15.734,27.66z M14.989,27.259c0.056-0.068,0.115-0.137,0.176-0.207
			c0.019-0.022,0.038-0.045,0.058-0.068l0.095,0.127C15.212,27.165,15.102,27.214,14.989,27.259z M14.601,27.726
			c-0.079,0.19-0.171,0.367-0.273,0.532l-0.185-0.11C14.303,28.025,14.457,27.886,14.601,27.726z M14.201,28.442
			c-0.323,0.455-0.724,0.78-1.135,0.896c-0.003-0.005-0.007-0.012-0.01-0.017c-0.024-0.085-0.099-0.148-0.192-0.148
			c-0.111,0.001-0.2,0.092-0.2,0.203c0,0.047,0.017,0.088,0.045,0.121c0,0.002,0,0.007,0,0.009l-0.229-0.047
			c0.049-0.276,0.068-0.548,0.064-0.809c0.057,0.008,0.114,0.012,0.171,0.013c0.011,0,0.021,0,0.033,0
			c0.402,0,0.813-0.131,1.195-0.375L14.201,28.442z M14.011,28.067L13.27,27.62c0.121,0.024,0.248,0.042,0.382,0.044
			c0.261,0.005,0.547-0.029,0.854-0.103c0.023-0.007,0.047-0.012,0.072-0.019C14.404,27.747,14.212,27.923,14.011,28.067z
			 M12.347,29.145c-0.026-0.039-0.056-0.078-0.092-0.112c-0.004-0.004-0.011-0.01-0.016-0.014c0.015-0.079,0.024-0.156,0.03-0.232
			C12.311,28.901,12.338,29.02,12.347,29.145z M12.317,29.587c-0.002,0.015-0.007,0.028-0.01,0.043
			c-0.019,0.051-0.058,0.09-0.12,0.124c-0.051,0.027-0.119,0.046-0.191,0.06c0.041-0.097,0.08-0.193,0.113-0.287
			c0.04-0.117,0.071-0.229,0.098-0.337C12.297,29.307,12.34,29.449,12.317,29.587z M11.77,29.974
			c-0.086,0.176-0.185,0.354-0.295,0.53c0.021-0.189,0.034-0.367,0.037-0.536C11.603,29.974,11.688,29.976,11.77,29.974z
			 M11.926,29.963c0.11-0.013,0.209-0.034,0.287-0.069c-0.125,0.263-0.331,0.481-0.592,0.633
			C11.737,30.34,11.838,30.149,11.926,29.963z M11.166,31.452c-0.008,0.034-0.017,0.068-0.026,0.102
			c-0.025-0.021-0.053-0.043-0.081-0.062C11.096,31.481,11.131,31.468,11.166,31.452z M11.416,31.052h0.025
			c0.013,0.01,0.024,0.021,0.035,0.031c-0.011,0.01-0.022,0.021-0.034,0.03C11.433,31.093,11.425,31.071,11.416,31.052z
			 M11.45,30.827h-0.02c0-0.003,0-0.008,0-0.013c0.013-0.02,0.026-0.038,0.038-0.058c0.048-0.02,0.095-0.038,0.142-0.062
			c0.153-0.076,0.29-0.178,0.407-0.294c-0.055,0.103-0.116,0.199-0.182,0.291C11.716,30.745,11.589,30.794,11.45,30.827z
			 M11.208,31.272c-0.02,0.012-0.037,0.026-0.056,0.035c-0.058,0.029-0.116,0.052-0.174,0.069c0.095-0.104,0.187-0.21,0.273-0.319
			C11.239,31.132,11.223,31.202,11.208,31.272z M10.809,31.554c0.025-0.002,0.051-0.009,0.076-0.016
			c0.071,0.049,0.141,0.101,0.209,0.156c-0.043,0.034-0.088,0.061-0.132,0.088c-0.104-0.031-0.212-0.056-0.321-0.071
			C10.697,31.659,10.754,31.608,10.809,31.554z M11.328,31.364c0.02-0.012,0.039-0.022,0.059-0.035
			c0.01,0.024,0.02,0.048,0.031,0.073c-0.043,0.045-0.085,0.09-0.131,0.131C11.302,31.478,11.314,31.421,11.328,31.364z
			 M11.503,31.245c0.028-0.023,0.054-0.046,0.081-0.068c0.006,0.004,0.01,0.008,0.014,0.013c-0.025,0.031-0.051,0.065-0.077,0.096
			C11.514,31.271,11.509,31.257,11.503,31.245z M12.162,30.513c0.115-0.258,0.211-0.536,0.276-0.833l0.301,0.061
			C12.65,30.044,12.448,30.311,12.162,30.513z M13.097,29.474c0.444-0.125,0.879-0.473,1.223-0.958l0.375,0.228
			c-0.131,0.409-0.368,0.768-0.631,1.04l-1.013-0.207C13.076,29.546,13.091,29.511,13.097,29.474z M11.471,31.543
			c0.054,0.151,0.098,0.301,0.131,0.447c-0.094-0.106-0.192-0.204-0.293-0.296C11.364,31.648,11.418,31.598,11.471,31.543z
			 M18.642,26.789l0.067-0.459c0.034-0.003,0.064-0.003,0.097-0.007c0.281-0.035,0.566-0.112,0.844-0.219
			C19.37,26.442,18.991,26.661,18.642,26.789z M18.79,26.185c-0.02,0.003-0.038,0.002-0.059,0.004l0.052-0.358
			c0.27,0.077,0.549,0.126,0.808,0.149C19.327,26.081,19.057,26.152,18.79,26.185z M19.668,25.848
			c-0.277-0.019-0.578-0.073-0.865-0.154l0.071-0.48C19.114,25.444,19.382,25.66,19.668,25.848z M19.324,25.158
			c0.083,0.162,0.175,0.322,0.277,0.479c-0.255-0.18-0.49-0.382-0.702-0.595l0.108-0.732C19.072,24.584,19.179,24.871,19.324,25.158
			z M18.78,24.317l-0.076,0.519c-0.09-0.102-0.173-0.205-0.25-0.308C18.568,24.462,18.677,24.392,18.78,24.317z M19.117,23.804
			c0.007,0.001,0.014,0.002,0.02,0.004c-0.019,0.021-0.035,0.041-0.054,0.061c-0.001-0.024,0-0.047,0-0.069
			C19.096,23.801,19.105,23.803,19.117,23.804z M18.81,24.117c-0.034,0.026-0.065,0.054-0.1,0.08
			c0.027-0.035,0.057-0.069,0.081-0.106c0.012-0.017,0.02-0.035,0.03-0.05L18.81,24.117z M18.677,25.014l-0.089,0.612
			c-0.476-0.167-0.88-0.416-1.016-0.728c0.272-0.079,0.527-0.181,0.759-0.302C18.435,24.737,18.551,24.877,18.677,25.014z
			 M18.138,24.31c0.028,0.048,0.061,0.093,0.092,0.141c-0.116,0.078-0.241,0.143-0.371,0.197
			C17.968,24.551,18.06,24.437,18.138,24.31z M19.257,23.33c0.04,0.012,0.079,0.01,0.116,0c-0.014,0.022-0.028,0.048-0.042,0.069
			c-0.072,0.101-0.154,0.174-0.229,0.214c0.022-0.12,0.064-0.221,0.128-0.3C19.238,23.318,19.247,23.326,19.257,23.33z
			 M18.799,23.755c-0.032,0.09-0.071,0.178-0.125,0.261c-0.089,0.137-0.205,0.255-0.333,0.354c-0.045-0.068-0.086-0.137-0.126-0.205
			c0.075-0.159,0.122-0.33,0.144-0.514C18.501,23.694,18.649,23.728,18.799,23.755z M18.507,23.544
			c-0.045-0.013-0.09-0.027-0.136-0.042c0.001-0.022-0.001-0.043-0.001-0.063C18.415,23.476,18.461,23.511,18.507,23.544z
			 M18.225,23.609c-0.014,0.143-0.045,0.278-0.093,0.406c-0.088-0.175-0.151-0.344-0.189-0.509
			C18.034,23.544,18.128,23.579,18.225,23.609z M17.587,23.343c0.02,0.01,0.042,0.02,0.062,0.03c0.02,0.057,0.063,0.107,0.125,0.127
			c0.009,0.001,0.015,0,0.023,0.001c0.038,0.187,0.111,0.38,0.211,0.578c0.015,0.03,0.034,0.062,0.051,0.09
			c-0.003,0.009-0.006,0.016-0.011,0.023c-0.101,0.183-0.245,0.331-0.415,0.447c-0.023-0.044-0.064-0.082-0.116-0.099
			c-0.016-0.005-0.033-0.004-0.05-0.006C17.575,24.236,17.619,23.82,17.587,23.343z M16.987,25.026l0.105,0.625
			c-0.093-0.113-0.175-0.238-0.233-0.382c0.027-0.022,0.052-0.051,0.065-0.09c0.016-0.049,0.009-0.101-0.009-0.144
			C16.939,25.031,16.962,25.029,16.987,25.026z M16.539,25.068c-0.022,0.088,0.018,0.176,0.097,0.221
			c-0.024,0.009-0.046,0.022-0.066,0.042c-0.082,0.076-0.084,0.205-0.006,0.285c0.024,0.025,0.055,0.041,0.086,0.05
			c-0.026,0.487-0.506,0.98-1.132,1.336l-0.147-0.195c0.464-0.554,0.907-1.148,0.93-1.734
			C16.379,25.073,16.458,25.073,16.539,25.068z M14.938,27.104c0.029-0.145,0.047-0.284,0.056-0.42l0.142,0.187
			c-0.026,0.031-0.052,0.062-0.078,0.09C15.018,27.01,14.979,27.057,14.938,27.104z M16.159,25.071
			c-0.025,0.536-0.437,1.096-0.875,1.623l-0.283-0.374c-0.024-0.433-0.151-0.822-0.381-1.137c0.036-0.062,0.038-0.136,0.005-0.196
			c0.009-0.012,0.02-0.021,0.029-0.031c0.061-0.064,0.119-0.128,0.173-0.193C15.21,24.941,15.665,25.051,16.159,25.071z
			 M14.838,26.105l-0.59-0.781c0.01-0.007,0.019-0.016,0.028-0.022c0.016-0.012,0.033-0.021,0.048-0.032
			c0.006-0.005,0.013-0.011,0.02-0.018c0.051,0.031,0.113,0.038,0.168,0.019C14.683,25.508,14.791,25.792,14.838,26.105z
			 M15.874,24.778c0.068,0.062,0.143,0.112,0.227,0.152c-0.438-0.024-0.841-0.121-1.184-0.277c0.106-0.133,0.202-0.271,0.287-0.409
			C15.401,24.464,15.631,24.647,15.874,24.778z M15.642,24.467c-0.132-0.101-0.256-0.218-0.371-0.349
			c0.084-0.153,0.154-0.308,0.208-0.46C15.482,23.98,15.535,24.252,15.642,24.467z M14.609,24.788
			c0.016-0.037,0.028-0.076,0.04-0.118c0.008,0.005,0.017,0.011,0.025,0.016C14.651,24.72,14.632,24.756,14.609,24.788z
			 M15.105,24.131c-0.025,0.043-0.048,0.087-0.076,0.129c0.017-0.056,0.031-0.113,0.043-0.17
			C15.083,24.105,15.094,24.118,15.105,24.131z M14.731,23.088c0.062-0.021,0.104-0.071,0.122-0.132
			c0.092,0.245,0.137,0.5,0.128,0.754C14.875,23.521,14.79,23.313,14.731,23.088z M14.394,24.891c0.012-0.122,0.003-0.257-0.022-0.4
			c0.048,0.036,0.099,0.072,0.151,0.106c-0.03,0.109-0.069,0.206-0.115,0.291C14.403,24.889,14.397,24.889,14.394,24.891z
			 M14.682,24.536c0.054-0.276,0.044-0.617-0.091-1.034c0.054-0.045,0.077-0.113,0.069-0.178c0.075,0.221,0.176,0.424,0.298,0.607
			c-0.034,0.224-0.102,0.439-0.212,0.639C14.725,24.558,14.703,24.547,14.682,24.536z M14.07,25.46l0.794,1.05
			c-0.003,0.229-0.033,0.467-0.096,0.714c-0.191-0.429-0.578-0.885-1.318-1.248c0.003-0.044-0.01-0.086-0.034-0.124
			C13.639,25.743,13.858,25.614,14.07,25.46z M13.663,25.555c-0.15,0.085-0.307,0.155-0.465,0.211
			c-0.01,0.003-0.02,0.007-0.031,0.01c-0.206,0.071-0.416,0.117-0.62,0.125c0.037-0.148,0.065-0.294,0.083-0.438
			c0.072,0.025,0.146,0.047,0.222,0.065C13.132,25.596,13.408,25.603,13.663,25.555z M12.122,26.219
			c0.004,0.06,0.004,0.118,0.001,0.173c-0.006,0.001-0.013,0-0.019,0.003c-0.007-0.024-0.016-0.048-0.026-0.073
			c-0.015-0.034-0.034-0.067-0.051-0.1C12.058,26.221,12.089,26.221,12.122,26.219z M12.238,26.024
			c0.02,0.002,0.039,0.007,0.059,0.009c0,0.01-0.002,0.017-0.004,0.026c-0.016,0.002-0.032,0.005-0.047,0.007
			C12.243,26.052,12.241,26.038,12.238,26.024z M12.262,26.203c0.004,0,0.007,0,0.012,0c-0.003,0.019-0.003,0.038-0.007,0.057
			C12.266,26.241,12.263,26.222,12.262,26.203z M12.62,24.589c0.168,0.406,0.411,0.707,0.701,0.856c-0.142,0-0.289-0.015-0.436-0.05
			c-0.082-0.02-0.161-0.045-0.239-0.075C12.667,25.064,12.659,24.819,12.62,24.589z M12.5,25.411
			c-0.014,0.114-0.033,0.228-0.058,0.343c-0.011-0.136-0.037-0.271-0.076-0.403C12.41,25.372,12.453,25.392,12.5,25.411z
			 M11.64,24.556c0.166,0.119,0.306,0.265,0.414,0.436C11.894,24.868,11.753,24.72,11.64,24.556z M11.772,25.112
			c0.032-0.058,0.03-0.123,0.004-0.18c0.12,0.119,0.255,0.225,0.402,0.315c0.083,0.206,0.123,0.425,0.122,0.644
			c-0.034-0.003-0.066-0.009-0.099-0.015C12.131,25.644,12,25.386,11.772,25.112z M12.086,25.996
			c0.007,0.029,0.013,0.057,0.017,0.085c-0.055,0.003-0.109,0.007-0.163,0.008c-0.062-0.086-0.137-0.168-0.222-0.243
			C11.835,25.915,11.958,25.963,12.086,25.996z M11.44,25.627c0.017,0.018,0.035,0.033,0.052,0.049
			c-0.022-0.016-0.045-0.03-0.068-0.045C11.429,25.629,11.435,25.629,11.44,25.627z M10.681,25.646
			c0.015-0.028,0.021-0.057,0.022-0.087c0.022-0.015,0.044-0.034,0.06-0.056c0.521,0.145,0.825,0.378,0.999,0.58
			C11.329,26.055,10.949,25.914,10.681,25.646z M11.825,26.907c-0.194,0.013-0.451-0.142-0.762-0.456
			c0.046-0.012,0.087-0.037,0.114-0.076c0.269,0.095,0.501,0.276,0.689,0.522C11.853,26.899,11.839,26.905,11.825,26.907z
			 M11.994,26.835c-0.21-0.281-0.473-0.488-0.779-0.594c-0.005-0.066-0.04-0.122-0.096-0.156c0.225,0.089,0.479,0.136,0.748,0.14
			c0.038,0.058,0.066,0.112,0.083,0.151c0.017,0.041,0.031,0.081,0.041,0.121c-0.031,0.067-0.022,0.147,0.026,0.208
			c0,0.042-0.006,0.083-0.015,0.122C12,26.832,11.997,26.833,11.994,26.835z M10.754,28.245c-0.048-0.031-0.099-0.062-0.152-0.094
			c0.218-0.064,0.426-0.158,0.611-0.272c0.001,0,0.003,0,0.005,0C11.069,28.02,10.913,28.141,10.754,28.245z M12.349,26.49
			c0.045-0.105,0.085-0.213,0.12-0.319c0.195-0.036,0.392-0.091,0.591-0.165c0.008,0.034,0.021,0.065,0.048,0.092
			c0.076,0.08,0.205,0.083,0.285,0.005c0,0,0,0,0-0.001c0.756,0.371,1.121,0.839,1.287,1.267c-0.069,0.02-0.138,0.04-0.206,0.057
			c-0.407,0.1-1.713,0.329-2.167-0.69c0.003-0.002,0.006-0.003,0.008-0.005C12.381,26.666,12.391,26.567,12.349,26.49z
			 M11.25,28.759c-0.097-0.159-0.222-0.301-0.38-0.426c0.171-0.116,0.336-0.251,0.495-0.403c0.025,0.009,0.05,0.016,0.074,0.026
			c-0.042,0.075-0.035,0.17,0.027,0.238c0.059,0.061,0.146,0.077,0.221,0.047c0.13,0.129,0.282,0.229,0.447,0.3
			c0.008,0.12,0.003,0.248-0.015,0.386C11.949,28.818,11.676,28.726,11.25,28.759z M11.32,28.891c0.4-0.018,0.636,0.084,0.77,0.184
			c-0.026,0.129-0.064,0.265-0.113,0.408c-0.04,0.116-0.089,0.233-0.143,0.353c-0.098,0.006-0.205,0.005-0.321-0.005
			C11.509,29.472,11.449,29.16,11.32,28.891z M10.595,29.782c0.271,0.084,0.537,0.144,0.78,0.172
			c-0.004,0.22-0.025,0.456-0.062,0.712c-0.026,0.009-0.053,0.019-0.081,0.025C11.025,30.306,10.824,30.001,10.595,29.782z
			 M10.893,30.747c-0.24,0.015-0.493-0.018-0.744-0.094C10.413,30.634,10.66,30.666,10.893,30.747z M10.05,31.048
			c-0.23-0.038-0.459-0.029-0.676,0.032c-0.051-0.063-0.137-0.089-0.217-0.062c0.012-0.024,0.017-0.052,0.017-0.08
			c0-0.007-0.002-0.012-0.004-0.018c0.177-0.08,0.348-0.144,0.514-0.188c0.028,0.039,0.071,0.071,0.123,0.08
			c0.072,0.017,0.143-0.012,0.19-0.063c0.168,0.062,0.337,0.101,0.505,0.122C10.343,30.911,10.192,30.97,10.05,31.048z
			 M10.415,31.387c0-0.039-0.014-0.077-0.035-0.109c0.105,0.038,0.21,0.085,0.314,0.143C10.6,31.422,10.505,31.414,10.415,31.387z
			 M10.268,31.096c0.311-0.133,0.625-0.158,0.888-0.14c-0.104,0.135-0.213,0.263-0.328,0.384
			C10.644,31.231,10.456,31.148,10.268,31.096z M10.199,32.055c0.102-0.067,0.199-0.14,0.295-0.219
			c0.099,0.008,0.197,0.023,0.295,0.048C10.598,31.979,10.399,32.039,10.199,32.055z M10.566,32.227
			c-0.019-0.035-0.048-0.062-0.08-0.081c0.167-0.045,0.331-0.113,0.49-0.209c0.011,0.004,0.023,0.009,0.034,0.014
			c-0.037,0.096-0.078,0.188-0.119,0.273C10.79,32.219,10.682,32.219,10.566,32.227z M11.185,31.866
			c0.01-0.024,0.019-0.049,0.027-0.073c0.066,0.06,0.133,0.121,0.197,0.188C11.336,31.938,11.261,31.901,11.185,31.866z
			 M11.138,31.997c0.196,0.088,0.372,0.209,0.527,0.357c0.003,0.024,0.004,0.048,0.006,0.07c-0.169-0.09-0.378-0.159-0.635-0.188
			C11.072,32.16,11.106,32.08,11.138,31.997z M10.73,32.74c0.087-0.112,0.166-0.236,0.237-0.37c0.303,0.026,0.538,0.11,0.715,0.221
			c0,0.035,0.002,0.074,0,0.109C11.417,32.649,11.087,32.663,10.73,32.74z M11.819,32.513c0,0.001,0,0.001,0.001,0.003
			c0,0-0.001-0.001-0.001-0.001V32.513z M11.789,32.219c-0.039-0.256-0.11-0.52-0.213-0.789c0.04-0.047,0.079-0.093,0.119-0.142
			c0.432,0.468,0.686,1.105,0.785,1.606l-0.222,0.097c-0.005-0.009-0.01-0.021-0.016-0.032c-0.007-0.018-0.012-0.036-0.02-0.055
			c-0.061-0.141-0.139-0.273-0.229-0.393C11.929,32.409,11.86,32.312,11.789,32.219z M11.824,32.735c0-0.014,0-0.027,0-0.04
			c0.026,0.02,0.05,0.04,0.072,0.062C11.873,32.748,11.848,32.741,11.824,32.735z M11.79,33.91c-0.03,0.046-0.039,0.099-0.031,0.148
			c-0.149,0.084-0.324,0.148-0.522,0.188c0.322-0.337,0.513-0.765,0.569-1.251c0.156,0.015,0.285,0.062,0.347,0.13
			c0.04,0.139,0.056,0.286,0.053,0.438c-0.018,0.053-0.042,0.105-0.072,0.157c-0.028,0.043-0.061,0.084-0.097,0.124
			C11.949,33.805,11.846,33.83,11.79,33.91z M12.42,33.396c-0.022-0.066-0.047-0.132-0.073-0.198l0.169-0.073
			c0.007,0.066,0.014,0.129,0.014,0.187C12.483,33.324,12.445,33.354,12.42,33.396z M12.329,33.748
			c0.006-0.045,0.013-0.088,0.015-0.133c0.01,0.039,0.021,0.077,0.03,0.116C12.358,33.738,12.342,33.742,12.329,33.748z
			 M12.514,33.686C12.514,33.686,12.514,33.686,12.514,33.686c0,0,0.001,0,0.003,0C12.516,33.686,12.515,33.686,12.514,33.686z
			 M12.534,35.639c0.167-0.52,0.177-1.157,0.016-1.815c0.483-0.125,0.951-0.003,1.295,0.154c0.062,0.028,0.122,0.064,0.183,0.099
			C13.48,34.612,12.985,35.133,12.534,35.639z M14.131,33.974c-0.075-0.043-0.152-0.086-0.229-0.121
			c-0.409-0.188-0.805-0.257-1.174-0.209c0.04-0.037,0.065-0.089,0.065-0.146c0-0.083-0.052-0.154-0.124-0.186
			c-0.001-0.074-0.008-0.157-0.018-0.246l0.344-0.149c0.003,0.002,0.004,0.006,0.009,0.009c0.092,0.062,0.217,0.039,0.279-0.054
			c0.02-0.029,0.027-0.061,0.03-0.093l0.183-0.08c0.544-0.093,0.922,0.327,1.115,0.624c0.026,0.039,0.051,0.082,0.075,0.124
			C14.495,33.624,14.309,33.8,14.131,33.974z M15.37,32.824L15.37,32.824c-0.093-0.063-0.218-0.04-0.28,0.052
			c-0.044,0.065-0.044,0.145-0.009,0.208c-0.099,0.089-0.198,0.18-0.293,0.268c-0.02-0.035-0.039-0.071-0.061-0.104
			c-0.26-0.401-0.576-0.63-0.917-0.686l2.937-1.272c0.033,0.094,0.074,0.183,0.123,0.268C16.333,31.99,15.834,32.412,15.37,32.824z
			 M19.012,28.948l0.85-2.596c0.055,0.25,0.16,0.523,0.293,0.784c0.186,0.365,0.422,0.704,0.639,0.913
			c-0.001,0.003-0.003,0.003-0.003,0.007c-0.031,0.093,0.014,0.19,0.097,0.237l-0.056,0.055c-0.127-0.039-0.237-0.084-0.322-0.138
			c0.02-0.055,0.018-0.114-0.012-0.167c-0.055-0.097-0.177-0.132-0.275-0.078c-0.097,0.056-0.132,0.179-0.077,0.275
			c0.055,0.096,0.177,0.131,0.275,0.077c0.083,0.055,0.187,0.102,0.301,0.14l-0.77,0.773c-0.339,0.344-0.45,0.271-0.683,0.486
			c-0.099-0.101-0.212-0.186-0.339-0.256C18.928,29.339,18.928,29.207,19.012,28.948z M15.196,34.466
			c-0.036-0.188-0.088-0.367-0.148-0.543c0.096-0.095,0.193-0.189,0.293-0.285c0.025,0.341-0.009,0.726-0.115,1.019
			C15.218,34.592,15.208,34.528,15.196,34.466z M15.091,34.723c-0.142-0.146-0.291-0.277-0.445-0.4
			c0.096-0.097,0.193-0.193,0.292-0.291C15.009,34.251,15.061,34.485,15.091,34.723z M14.236,34.744
			c0.102-0.105,0.205-0.213,0.311-0.32c0.175,0.14,0.346,0.294,0.505,0.466C14.771,34.801,14.493,34.749,14.236,34.744z
			 M15.467,33.519c0.457-0.435,0.949-0.881,1.481-1.338c-0.032,0.07-0.078,0.155-0.149,0.26l-1.374,2.021
			C15.491,34.16,15.5,33.818,15.467,33.519z M16.985,32.565c0.202-0.296,0.321-0.344,0.446-0.453
			c0.029,0.016,0.058,0.03,0.087,0.046c-0.017,0.078-0.042,0.171-0.091,0.292l-0.653,1.609c-0.325,0.043-0.712,0.184-1.075,0.396
			L16.985,32.565z M17.174,37.075c-0.005-0.006-0.008-0.013-0.015-0.02c0.028-0.109,0.035-0.227,0.011-0.351
			c0.144-0.114,0.301-0.22,0.475-0.312C17.444,36.585,17.286,36.818,17.174,37.075z M17.129,36.562
			c-0.03-0.092-0.069-0.186-0.128-0.281c-0.144-0.238-0.358-0.466-0.613-0.672l0.245-0.605c0.752,0.128,1.25,0.532,1.347,1.081
			C17.662,36.212,17.374,36.375,17.129,36.562z M16.401,37.421c-0.018-0.012-0.036-0.022-0.054-0.034
			c0.002-0.076,0.001-0.155-0.005-0.236c-0.007-0.085-0.019-0.169-0.035-0.256c-0.039-0.204-0.103-0.412-0.188-0.621l0.214-0.529
			c0.23,0.19,0.421,0.396,0.549,0.608c0.052,0.087,0.103,0.19,0.133,0.303C16.745,36.884,16.535,37.144,16.401,37.421z
			 M16.148,35.604l-0.157,0.39c-0.129-0.262-0.288-0.52-0.47-0.764C15.743,35.336,15.956,35.463,16.148,35.604z M15.434,35.033
			c0.322-0.07,0.652-0.09,0.971-0.061l-0.202,0.497C15.965,35.301,15.704,35.151,15.434,35.033z M15.395,34.905l0.111-0.161
			c0.403-0.29,0.851-0.472,1.208-0.533l-0.254,0.627C16.11,34.802,15.749,34.828,15.395,34.905z M13.76,36.946
			c-0.167,0.078-0.311,0.187-0.434,0.322c0.004-0.068-0.024-0.138-0.085-0.179c0,0-0.002,0-0.003,0
			c0.006-0.022,0.013-0.043,0.018-0.065c0.193-0.062,0.403-0.107,0.627-0.127C13.841,36.912,13.799,36.927,13.76,36.946z
			 M13.305,36.862c0.302-0.899,1.007-1.479,1.806-1.74l0.01,0.007c0.014,0.617-0.122,1.223-0.429,1.659
			C14.19,36.716,13.714,36.744,13.305,36.862z M14.704,36.995c0.014-0.015,0.028-0.03,0.041-0.046
			c0.034,0.005,0.068,0.005,0.101,0.01C14.798,36.968,14.751,36.982,14.704,36.995z M15.437,36.962
			c-0.005-0.002-0.012-0.005-0.018-0.007c-0.192-0.063-0.384-0.109-0.575-0.145c0.302-0.456,0.436-1.06,0.422-1.676
			c0.264,0.323,0.489,0.679,0.653,1.036l-0.341,0.843C15.531,36.997,15.483,36.978,15.437,36.962z M15.785,37.096l0.255-0.628
			c0.085,0.237,0.145,0.472,0.164,0.695c0.004,0.047,0.007,0.095,0.007,0.144C16.076,37.231,15.934,37.16,15.785,37.096z
			 M16.039,37.425c0.053,0.044,0.103,0.093,0.154,0.145c-0.022,0.139-0.067,0.281-0.144,0.414
			C16.088,37.773,16.087,37.582,16.039,37.425z M17.065,37.403c-0.037,0.156-0.058,0.318-0.058,0.483
			c-0.147-0.139-0.308-0.27-0.485-0.39c0.113-0.244,0.291-0.475,0.52-0.683c0.004,0.063,0.002,0.128-0.012,0.192
			c-0.064,0-0.128,0.027-0.167,0.084c-0.063,0.093-0.039,0.218,0.053,0.28C16.961,37.403,17.015,37.412,17.065,37.403z
			 M18.204,36.195c-0.005-0.005-0.009-0.012-0.015-0.017c0.026-0.013,0.051-0.03,0.08-0.043
			C18.246,36.155,18.226,36.176,18.204,36.195z M18.809,35.848c-0.02,0.002-0.038,0.001-0.057,0.004
			c-0.154,0.022-0.302,0.062-0.441,0.116c-0.065,0.021-0.129,0.042-0.192,0.065c-0.117-0.589-0.646-1.018-1.433-1.16l0.278-0.684
			c0.032,0,0.066,0,0.095,0.003c0.007,0.056,0.034,0.11,0.085,0.144c0.092,0.064,0.218,0.04,0.28-0.052
			c0.062-0.094,0.038-0.218-0.054-0.282c-0.092-0.062-0.217-0.038-0.279,0.055c-0.022-0.003-0.048-0.002-0.073-0.003l0.615-1.517
			c0.05-0.124,0.095-0.211,0.139-0.278c0.169,0.047,0.339,0.064,0.504,0.053c0,0,0,0,0,0c0.023,0.028,0.042,0.035,0.06,0.03
			c0.004,0,0.008-0.003,0.011-0.004l0.497,3.505C18.832,35.843,18.821,35.846,18.809,35.848z M19.066,35.81l-0.458-3.228
			c0.146,0.264,0.272,0.242,0.477,0.669l0.334,0.699c-0.006,0.006-0.017,0.008-0.025,0.016c-0.074,0.084-0.069,0.212,0.015,0.286
			c0.05,0.046,0.115,0.058,0.176,0.044l0.343,0.72c-0.094,0.186-0.146,0.375-0.139,0.561c-0.02,0.012-0.039,0.022-0.055,0.042
			c-0.042,0.046-0.055,0.105-0.047,0.162C19.484,35.774,19.277,35.784,19.066,35.81z M20.165,36.34
			c-0.212-0.193-0.45-0.334-0.696-0.416c0.117-0.001,0.234,0.007,0.349,0.019c0.026,0.01,0.055,0.012,0.083,0.011
			c0.146,0.02,0.287,0.052,0.421,0.093c-0.006,0.165,0.02,0.328,0.086,0.486c0,0.001,0,0.001,0,0.001
			c-0.012,0.012-0.017,0.026-0.024,0.039C20.314,36.49,20.244,36.412,20.165,36.34z M20.532,36.468
			c-0.044-0.107-0.064-0.222-0.069-0.336l0.169,0.353C20.6,36.472,20.566,36.465,20.532,36.468z M20.902,37.868
			C20.901,37.869,20.901,37.868,20.902,37.868c-0.018-0.35-0.128-0.695-0.312-1.006c0.042-0.008,0.084-0.024,0.115-0.06
			c0.021-0.023,0.034-0.049,0.043-0.076l0.367,0.768c-0.025,0.096-0.044,0.188-0.057,0.282
			C21.004,37.808,20.953,37.837,20.902,37.868z M21.3,37.363c0.007-0.018,0.013-0.035,0.02-0.053
			c0.013,0.007,0.025,0.016,0.039,0.019c0,0.061,0.004,0.12,0.012,0.18L21.3,37.363z M21.024,38.001
			c0.004-0.002,0.008-0.006,0.01-0.009c0,0.005,0,0.012,0,0.018c-0.001,0.002-0.002,0.007-0.002,0.012
			C21.03,38.014,21.027,38.009,21.024,38.001z M21.511,37.551c-0.013-0.076-0.017-0.154-0.016-0.231
			c0.081-0.035,0.135-0.118,0.122-0.21c-0.007-0.052-0.033-0.093-0.069-0.122c0.034-0.126,0.083-0.248,0.145-0.364
			c0.038,0.035,0.076,0.07,0.111,0.109c-0.001,0.034-0.007,0.068-0.006,0.104c0.008,0.189,0.052,0.377,0.128,0.561
			C21.788,37.438,21.649,37.492,21.511,37.551z M22.059,37.355c-0.06-0.143-0.098-0.29-0.112-0.437
			c0.076,0.116,0.136,0.241,0.173,0.374C22.094,37.309,22.074,37.331,22.059,37.355z M22.333,37.293
			c-0.024-0.015-0.049-0.026-0.078-0.03c-0.059-0.208-0.167-0.401-0.312-0.574c0.013-0.183,0.06-0.359,0.145-0.522
			c0.049,0.021,0.105,0.021,0.154,0c0.048,0.302,0.211,0.677,0.472,1.065C22.589,37.245,22.461,37.267,22.333,37.293z
			 M22.971,37.583c-0.038,0.067-0.035,0.152,0.011,0.217c-0.083-0.062-0.169-0.115-0.26-0.16c-0.1-0.048-0.204-0.082-0.308-0.107
			c0.007-0.021,0.01-0.041,0.011-0.062c0.159-0.013,0.315-0.012,0.462,0.002C22.915,37.51,22.941,37.547,22.971,37.583z"/>
	</g>
	<path fill="none" d="M50,44.973C50,47.749,47.748,50,44.973,50H10.028C7.25,50,5,47.749,5,44.973V10.026C5,7.25,7.25,5,10.028,5
		h34.945C47.748,5,50,7.25,50,10.026V44.973z"/>
</g>
</svg>
